<?xml version="1.0" encoding="UTF-8"?>
<svg id="_레이어_2" data-name="레이어 2" xmlns="http://www.w3.org/2000/svg" viewBox="0 0 269.8586230225 303">
  <defs>
    <style>
      .cls-1, .cls-2 {
        fill: #fff;
      }

      .cls-3 {
        fill: #3f873e;
      }

      .cls-4 {
        fill: none;
        stroke: #fff;
        stroke-linecap: round;
        stroke-linejoin: round;
        stroke-width: 9px;
      }

      .cls-2 {
        stroke: #000;
        stroke-miterlimit: 10;
        stroke-width: 6px;
      }
    </style>
  </defs>
  <g id="_레이어_1-2" data-name="레이어 1">
    <g>
      <path class="cls-2" d="m3.0000000606,3h263.8586228681v165.0708205125c0,72.8136963283-59.1154831592,131.9291794875-131.9291794875,131.9291794875h-.0002638728C62.1154832289,300,3.0000000606,240.8845168317,3.0000000606,168.0708204922V3h0Z"/>
      <path class="cls-3" d="m19.0651929423,20.5h231.7282371402v145.1359972935c0,63.9470838917-51.9169188148,115.8640027065-115.8640027065,115.8640027065h-.0002317287c-63.9470838909,0-115.8640027051-51.9169188141-115.8640027051-115.8640027051V20.5h0Z"/>
      <polyline class="cls-4" points="70.5076547192 12.5 70.5076547192 45.5097647402 199.3509683033 45.5097647402 199.3509683033 12.5"/>
      <polyline class="cls-4" points="70.5076547192 271.5 70.5076547192 242.5 199.3509683033 242.5 199.3509683033 271.5"/>
      <g>
        <circle class="cls-1" cx="134.9293115112" cy="141.75" r="76.25"/>
        <g>
          <polygon points="135.4611857371 118.8640449053 115.1278643863 131.3768580442 115.1278643863 155.2260776825 135.4611857371 166.8151027409 155.7945070879 154.8383826798 155.7945070879 130.0325449468 135.4611857371 118.8640449053"/>
          <path d="m94.0124922143,93.0563678062v25.8076770991l-20.3333213508,11.7307623178s1.5641016424-21.8974229932,20.3333213508-37.5384394169Z"/>
          <path d="m176.9098792598,190.0306696331v-25.8076770991l20.3333213508-11.7307623178s-1.5641016424,21.8974229932-20.3333213508,37.5384394169Z"/>
          <path d="m73.2246699402,152.7456325857l21.9533508292,13.5678511424-.7110262808,23.4637845059s-17.8047915434-12.8426222317-21.2423245484-37.0316356483Z"/>
          <path d="m158.2436888555,84.3022643944l-23.1076267398,11.492335868-19.5580343535-12.9822199156s20.3029763773-8.350610631,42.6656610933,1.4898840476Z"/>
          <path d="m156.8066597907,201.2948031887l-22.7634725154-12.1597909641-19.9274743272,12.4076794224s20.0514185564,8.9377939989,42.6909468426-.2478884583Z"/>
          <path d="m197.2713580928,133.7077253081l-21.6372298258-14.0665021494,1.2475941969-23.4413790215s17.5063463886,13.2465612071,20.3896356289,37.5078811709Z"/>
        </g>
      </g>
    </g>
  </g>
</svg>