<svg width="23" height="23" viewBox="0 0 23 23" fill="none" xmlns="http://www.w3.org/2000/svg">
<g clip-path="url(#clip0_34_176)">
<path d="M11.5 22.2095C17.4147 22.2095 22.2095 17.4147 22.2095 11.5C22.2095 5.58528 17.4147 0.790466 11.5 0.790466C5.58534 0.790466 0.790527 5.58528 0.790527 11.5C0.790527 17.4147 5.58534 22.2095 11.5 22.2095Z" fill="white"/>
<path d="M11.5749 8.28564L8.71899 10.0431V13.3928L11.5749 15.0205L14.4307 13.3383V9.85429L11.5749 8.28564Z" fill="black"/>
<path d="M5.75308 4.66089V8.28564L2.89722 9.93326C2.89722 9.93326 3.1169 6.85771 5.75308 4.66089Z" fill="black"/>
<path d="M17.3962 18.2812V14.6564L20.2521 13.0088C20.2521 13.0088 20.0324 16.0843 17.3962 18.2812Z" fill="black"/>
<path d="M2.8335 13.0444L5.9169 14.95L5.81703 18.2456C5.81703 18.2456 3.31631 16.4418 2.8335 13.0444Z" fill="black"/>
<path d="M14.7747 3.43134L11.5292 5.04547L8.78223 3.22208C8.78223 3.22208 11.6338 2.04922 14.7747 3.43134Z" fill="black"/>
<path d="M14.5727 19.8633L11.3755 18.1554L8.57666 19.8981C8.57666 19.8981 11.3929 21.1534 14.5727 19.8633Z" fill="black"/>
<path d="M20.2563 10.3705L17.2173 8.39482L17.3925 5.10242C17.3925 5.10242 19.8513 6.96293 20.2563 10.3705Z" fill="black"/>
</g>
<defs>
<clipPath id="clip0_34_176">
<rect width="23" height="23" fill="white"/>
</clipPath>
</defs>
</svg>
