<?xml version="1.0" encoding="UTF-8"?>
<svg id="_레이어_2" data-name="레이어 2" xmlns="http://www.w3.org/2000/svg" viewBox="0 0 269.8586230225 303">
  <defs>
    <style>
      .cls-1, .cls-2 {
        fill: #fff;
      }

      .cls-3 {
        fill: #3f873e;
      }

      .cls-4 {
        fill: none;
        stroke: #fff;
        stroke-linecap: round;
        stroke-linejoin: round;
        stroke-width: 9px;
      }

      .cls-2 {
        stroke: #000;
        stroke-miterlimit: 10;
        stroke-width: 6px;
      }
    </style>
  </defs>
  <g id="_레이어_1-2" data-name="레이어 1">
    <g>
      <path class="cls-2" d="m3.0000000057,3h263.8586230146v165.0708204106c0,72.8136963846-59.1154832049,131.9291795894-131.9291795894,131.9291795894h-.0002638564C62.1154832013,300,3.0000000057,240.8845168044,3.0000000057,168.0708204312V3h0Z"/>
      <path class="cls-3" d="m19.0651929271,20.5h231.7282371688v145.1359972786c0,63.9470839-51.9169188215,115.8640027214-115.8640027214,115.8640027214h-.0002317255c-63.9470839002,0-115.8640027219-51.9169188217-115.8640027219-115.8640027219V20.5h0Z"/>
      <rect class="cls-1" x="10.3023604288" y="87.5" width="249.2539021648" height="78"/>
      <g>
        <path d="m50.7667749968,118.6558578109c0-.5086963983-.1506607475-.8900493574-.4504290391-1.1447362359-.3008037606-.2533321611-.8219035626-.3813529591-1.564076008-.3813529591h-17.1771372912v8.6011010197h10.3911908373c.706448763,0,1.253953026-.0921207858,1.6432893908-.277717075.388559763-.1842415717.5832279454-.6001398254.5832279454-1.24837212h.9544436017v9.9876543184h-.9544436017c0-1.0627758308-.1946681824-1.7448760613-.5832279454-2.0456233328-.3893363648-.3007472714-.9368406278-.4511209072-1.6432893908-.4511209072h-10.3911908373v16.2308696357c0,.4158982537.1498841458.7281606234.4506879063.9361097503.2997682915.2079491269.6800443021.3122623697,1.1397925626.3122623697v1.24837212h-9.0127226574v-1.24837212c.9187199193,0,1.3784681799-.4165756125,1.3784681799-1.24837212v-34.2648681825c0-.8324738662-.4597482606-1.24837212-1.3784681799-1.24837212v-1.24837212h24.5993794796c.7421724454,0,1.2632722475-.149696277,1.564076008-.4511209072.2997682915-.3000699127.4504290391-.7044530682.4504290391-1.2138268253h.9544436017v9.1558578109h-.9544436017Z"/>
        <path d="m67.5724377645,119.2106146022c3.1454961228,0,5.6016287219.6827775892,7.3691743994,2.0463006915,1.7670279429,1.364200461,2.6508007816,3.6882182274,2.6508007816,6.9706985819,0,1.24837212-.1770652085,2.3585630612-.5301601563,3.3292181061-.3536126824.9713324037-.8216446954,1.8153213681-1.4048726408,2.5319668933-.5832279454.7173228839-1.2283251669,1.2951098716-1.9350327971,1.7340383218-.707484232.4396058089-1.431535969.7748983751-2.1737084144,1.0058776984l5.1957248523,9.918563729c.2824241848.509373757.5912528306.8907267161.9277802736,1.1440588772.3354919739.2546868785.6973884087.4511209072,1.0867247735.5899794446v1.24837212h-8.1113468447v-1.24837212c.4587127915,0,.6891046563-.2079491269.6891046563-.6245247393,0-.461281288-.2650800782-1.1792815306-.7952402345-2.1499365756l-4.1882134614-8.1845254072h-7.3691743994v9.918563729c0,.3705152195.1141604633.6360398376.3445523282.7972512128.2293563958.1625660927.4506879063.2431717803.6627001954.2431717803v1.24837212h-7.0512853994v-1.24837212c.6362957345,0,.9544436017-.3468076644.9544436017-1.0404229931v-25.9414842378c0-.6936153287-.3181478672-1.0404229931-.9544436017-1.0404229931v-1.24837212h14.6324720878Zm-.1058767109,13.1786912458c3.4633851227,0,5.195465985-1.4326136917,5.195465985-4.3005505098,0-1.1548966167-.4157408257-2.0686535292-1.2459281408-2.7399160202-.8307050496-.6692304148-2.1470450862-1.0052003397-3.9495378442-1.0052003397h-8.3766857902v8.0456668697h8.3766857902Z"/>
        <path d="m106.0085313629,125.6611016876c0-.8778569004-.5482808648-1.3174627093-1.6432893908-1.3174627093h-12.9361149079v6.9361532873h8.1646735011c.6005720521,0,1.0419407369-.0575754912,1.3254003908-.1734038322.2824241848-.1151509823.4240245781-.427413352.4240245781-.936787109h.9541847345v7.3527288997h-1.0603203126c.1061355782-.5086963983-.0354648151-.820958768-.4240245781-.936787109-.3893363648-.1144736236-.9368406278-.1734038322-1.643548258-.1734038322h-7.7403900557v8.1845254072h13.5721517752c.4242834454,0,.777119526-.1266660805,1.0603203126-.3813529591.2824241848-.2533321611.4242834454-.5893020859.4242834454-1.0058776984h.9541847345v7.2829609516h-.9541847345c0-.4158982537-.1418592606-.6475549358-.4242834454-.6936153287-.2832007866-.0460603929-.6360368672-.0690905894-1.0603203126-.0690905894h-19.4567224165v-1.24837212c.1762886067,0,.3528360806-.0806056876.5301601563-.2431717803.1762886067-.1612113752.2650800782-.4267359933.2650800782-.7972512128v-25.9414842378c0-.3691605021-.0887914715-.6346851201-.2650800782-.7972512128-.1773240757-.161888734-.3538715496-.2431717803-.5301601563-.2431717803v-1.24837212h18.8206855492c1.095008526,0,1.6432893908-.4158982537,1.6432893908-1.24837212h.9544436017v7.6988592054h-.9544436017Z"/>
        <path d="m135.4854878276,125.6611016876c0-.8778569004-.5482808648-1.3174627093-1.6432893908-1.3174627093h-12.9361149079v6.9361532873h8.1646735011c.6005720521,0,1.0419407369-.0575754912,1.3254003908-.1734038322.2824241848-.1151509823.4240245781-.427413352.4240245781-.936787109h.9541847345v7.3527288997h-1.0603203126c.1061355782-.5086963983-.0354648151-.820958768-.4240245781-.936787109-.3893363648-.1144736236-.9368406278-.1734038322-1.643548258-.1734038322h-7.7403900557v8.1845254072h13.5721517752c.4242834454,0,.777119526-.1266660805,1.0603203126-.3813529591.2824241848-.2533321611.4242834454-.5893020859.4242834454-1.0058776984h.9541847345v7.2829609516h-.9541847345c0-.4158982537-.1418592606-.6475549358-.4242834454-.6936153287-.2832007866-.0460603929-.6360368672-.0690905894-1.0603203126-.0690905894h-19.4567224165v-1.24837212c.1762886067,0,.3528360806-.0806056876.5301601563-.2431717803.1762886067-.1612113752.2650800782-.4267359933.2650800782-.7972512128v-25.9414842378c0-.3691605021-.0887914715-.6346851201-.2650800782-.7972512128-.1773240757-.161888734-.3538715497-.2431717803-.5301601563-.2431717803v-1.24837212h18.8206855492c1.095008526,0,1.6432893908-.4158982537,1.6432893908-1.24837212h.9544436017v7.6988592054h-.9544436017Z"/>
        <path d="m150.0120832045,147.440893953c0,.6936153287.3354919739,1.0404229931,1.0072525235,1.0404229931v1.24837212h-6.9451498212v-1.24837212c.5651072369,0,.8483080236-.3468076644.8483080236-1.0404229931v-25.9414842378c0-.6936153287-.2832007866-1.0404229931-.8483080236-1.0404229931v-1.24837212h6.9451498212v1.24837212c-.6717605496,0-1.0072525235.3468076644-1.0072525235,1.0404229931v11.3057943865c1.2011441042-1.2937551542,2.4387884925-2.6010574827,3.7111210942-3.9185201921,1.2723326017-1.3181400681,2.4204089168-2.5319668933,3.4460410161-3.6414804758,1.0245966302-1.1101909412,1.8729046538-2.0463006915,2.5446652034-2.8090066096.6709839478-.7633832768,1.0072525235-1.2368570217,1.0072525235-1.4224533109,0-.2303019646-.0975929585-.4158982537-.2914845391-.5547567912-.1946681824-.1388585375-.3802760106-.2079491269-.5565646172-.2079491269v-1.0404229931h8.7476425792v1.24837212c-.4242834454.1855962891-1.0603203126.7173228839-1.9086283362,1.5951797843l-8.8537781574,9.3638069378,8.3766857902,13.5952668582c.4240245781.6936153287.8829962369,1.3987457557,1.3782093126,2.1153912809.4946953412.7173228839.9891318151,1.1684437911,1.484603758,1.3526853628v1.24837212h-7.8465256338v-1.24837212c.388559763,0,.5832279454-.1388585375.5832279454-.4165756125,0-.1842415717-.07947225-.4389284502-.23841675-.7627059181-.1592033673-.3231001092-.4690674821-.8324738662-.9277802736-1.5260891949l-6.5211252431-10.4042299309-4.1351456724,4.3005505098v7.7686271535Z"/>
        <path d="m174.399450395,148.4813169461c.5648483697,0,.9541847345-.0806056876,1.1664558908-.2431717803.2120122891-.1612113752.317889-.4267359933.317889-.7972512128v-25.9414842378c0-.3691605021-.1058767109-.6346851201-.317889-.7972512128-.2122711563-.161888734-.6016075211-.2431717803-1.1664558908-.2431717803v-1.24837212h8.0585379229v1.24837212c-.9899084169,0-1.484603758.3468076644-1.484603758,1.0404229931v25.9414842378c0,.6936153287.4946953412,1.0404229931,1.484603758,1.0404229931v1.24837212h-8.0585379229v-1.24837212Z"/>
        <path d="m210.0257987119,127.9498968006c0-.0921207858-.0090603542-.1842415717-.0264044609-.2770397163-.0183795757-.0921207858-.0266633282-.2079491269-.0266633282-.3468076644,0-.2309793233-.1770652085-.543241693-.5301601563-.936787109-.3536126824-.3921906986-.8573683778-.7735436576-1.5107493517-1.1440588772-.654416443-.3698378608-1.4232522165-.6821002305-2.3062484534-.936787109-.884031706-.2533321611-1.8555605471-.3813529591-2.9158808597-.3813529591-1.2723326017,0-2.4305047401.2201415838-3.4727043442.659070034-1.0427173387.4402831676-1.9531535056,1.098675843-2.7302730316,1.9765327434-.7778961278.8792116179-1.3784681799,1.9663723626-1.802492758,3.2601275168-.4240245781,1.2951098716-.6362957345,2.7744613149-.6362957345,4.4394090473,0,1.6642703737.2386756172,3.155814274.7157679845,4.473954342.4770923672,1.3174627093,1.1043277475,2.4513612057,1.8822238753,3.3983086955.7768606587.9483022072,1.6608923647,1.6649477324,2.6508007816,2.1506139343.9888729478.4849888431,1.9963843386.7281606234,3.0217575706.7281606234.9544436017,0,1.9259724429-.161888734,2.9158808597-.4856662019.9891318151-.3231001092,1.8905076277-.7044530682,2.7038685707-1.1447362359.8125843412-.4389284502,1.4752845365-.9124021951,1.9881005862-1.4217759521.5120394478-.5080190396.7688357736-.970655045.7688357736-1.3872306575v-.5547567912c0-.277717075-.0183795757-.5080190396-.0530677891-.6936153287l.5832279454-.6936153287,3.9231333833,7.352051541-.5301601563.3468076644c-.4242834454-.2303019646-.7248283387-.3468076644-.9013758126-.3468076644-.2832007866,0-.7421724454.2086264856-1.3784681799.6245247393-.6360368672.4158982537-1.4403374559.8907267161-2.4121251643,1.4217759521-.9725643102.5324039535-2.1032965186.9828475019-3.392973227,1.3526853628-1.2907121774.3698378608-2.7302730316.5547567912-4.3207535005.5547567912-1.6262041514,0-3.234028727-.3000699127-4.8245091959-.9015644556-1.590480469-.6001398254-3.0046723312-1.5606344896-4.2412812505-2.8787745577-1.2376443884-1.3174627093-2.2448969119-2.9587028866-3.0220164379-4.9243978905-.7778961278-1.9650176451-1.1661970235-4.2416203012-1.1661970235-6.8318400445,0-2.5895423845.3883008957-4.8553073011,1.1661970235-6.7979721085.777119526-1.9419874487,1.802492758-3.5717125277,3.075084227-4.8898525958,1.2723326017-1.3174627093,2.7302730316-2.2996328526,4.3738212896-2.9478651471,1.6432893908-.6468775771,3.3308450837-.970655045,5.0629259459-.970655045,1.3427444975,0,2.5713285316.1625660927,3.6847166333.4849888431,1.1131292345.3244548266,2.0939772971.6936153287,2.9422853207,1.1101909412.8483080236.4158982537,1.5547567865.7864134733,2.1206406253,1.1095135825.5648483697.3244548266.9717877084.4856662019,1.2192648126.4856662019.1765474739,0,.3264316197-.0690905894.4506879063-.2079491269.1234796848-.1388585375.2560197239-.2540095198.3976201172-.3468076644l.6362957345.4856662019-3.4991088051,6.5893456229-.5832279454-.55543415Z"/>
        <path d="m226.619966925,147.440893953c0,.6936153287.3354919739,1.0404229931,1.0072525235,1.0404229931v1.24837212h-6.9451498212v-1.24837212c.5651072369,0,.8483080236-.3468076644.8483080236-1.0404229931v-25.9414842378c0-.6936153287-.2832007866-1.0404229931-.8483080236-1.0404229931v-1.24837212h6.9451498212v1.24837212c-.6717605496,0-1.0072525235.3468076644-1.0072525235,1.0404229931v11.3057943865c1.2011441042-1.2937551542,2.4387884925-2.6010574827,3.7111210942-3.9185201921,1.2723326017-1.3181400681,2.4204089168-2.5319668933,3.4460410161-3.6414804758,1.0245966302-1.1101909412,1.8729046538-2.0463006915,2.5446652034-2.8090066096.6709839478-.7633832768,1.0072525235-1.2368570217,1.0072525235-1.4224533109,0-.2303019646-.0975929585-.4158982537-.2914845391-.5547567912-.1946681824-.1388585375-.3802760106-.2079491269-.5565646172-.2079491269v-1.0404229931h8.7476425792v1.24837212c-.4242834454.1855962891-1.0603203126.7173228839-1.9086283362,1.5951797843l-8.8537781574,9.3638069378,8.3766857902,13.5952668582c.4240245781.6936153287.8829962369,1.3987457557,1.3782093126,2.1153912809.4946953412.7173228839.9891318151,1.1684437911,1.484603758,1.3526853628v1.24837212h-7.8465256338v-1.24837212c.388559763,0,.5832279454-.1388585375.5832279454-.4165756125,0-.1842415717-.07947225-.4389284502-.23841675-.7627059181-.1592033673-.3231001092-.4690674821-.8324738662-.9277802736-1.5260891949l-6.5211252431-10.4042299309-4.1351456724,4.3005505098v7.7686271535Z"/>
      </g>
      <polyline class="cls-4" points="70.5076547192 12.5 70.5076547192 45.5097647402 199.3509683033 45.5097647402 199.3509683033 12.5"/>
      <polyline class="cls-4" points="70.5076547192 270.5097647402 70.5076547192 237.5 199.3509683033 237.5 199.3509683033 270.5097647402"/>
      <g>
        <circle class="cls-1" cx="134.9293115112" cy="218.6058308336" r="43.3941691664"/>
        <g>
          <polygon points="135.2320031851 205.581345497 123.66023156 212.7024357278 123.66023156 226.2751186323 135.2320031851 232.8704775026 146.8037748102 226.0544799106 146.8037748102 211.9373819578 135.2320031851 205.581345497"/>
          <path d="m111.6433917955,190.894096896v14.687248601l-11.5717716251,6.6760220914s.8901362789-12.4619079039,11.5717716251-21.3632706924Z"/>
          <path d="m158.8206145746,246.0825461847v-14.687248601l11.5717716251-6.6760220914s-.8901362789,12.4619079039-11.5717716251,21.3632706924Z"/>
          <path d="m99.8129619416,224.8634877584l12.4937366511,7.7215164288-.4046477995,13.3533302837s-10.1327755568-7.3087858579-12.0890888517-21.0748467125Z"/>
          <path d="m148.1976136028,185.9121028717l-13.150639525,6.540332679-11.1305528039-7.3882314384s11.5545021836-4.7523647261,24.2811923289.8478987594Z"/>
          <path d="m147.3797948182,252.4930080474l-12.9547800282-6.9201839492-11.3408025182,7.0612582271s11.4113396572,5.0865330461,24.2955825464-.141074278Z"/>
          <path d="m170.4084107314,214.02894128l-12.3138309685-8.0053006406.7100106706-13.3405792361s9.9629292678,7.5386690871,11.603820298,21.3458798768Z"/>
        </g>
      </g>
      <g>
        <path d="m121.5505767291,109.3505859375h-.2388536558c0-.1462091568-.0631887978-.2258270421-.1891775394-.2388536558-.1262803821-.0134154678-.2621849043-.0199287747-.4081024205-.0199287747h-8.3818482128c-.1462091568,0-.2656845915.0099157806-.3583290905.0298445553-.0930333531.0199287747-.1394042094.0896308794-.1394042094.2091063141h-.2389508694v-.7167553945c0-.7033399267.1757620715-1.3072304069.5276750687-1.8117686543.351524143-.5042466067.7928735926-.9488041029,1.323951135-1.3339641291.5306886883-.3847711721,1.1015265666-.7232687014,1.7122219943-1.0152981609.6103065736-.2918350325,1.1811444519-.5805592318,1.7121247808-.8660753845.5307859018-.2853217256.9721353513-.5804620183,1.3240483485-.8860041592.351524143-.3051532868.5275778552-.6634823773.5275778552-1.075084485,0-.2787112052-.0631887978-.5076490805-.1891775394-.6869108393-.1262803821-.1791645453-.2886269858-.3250820615-.4877203058-.4379469758-.19909332-.1126704872-.4181154146-.1891775394-.657066284-.2289378752-.2388536558-.0398575494-.4712912183-.0597863241-.6968266198-.0597863241-.2258270421,0-.5045382473.0398575494-.8361336157.1194754347-.3319842225.0796178853-.6505529771.19909332-.9557062639.3583290905-.3054449274.1593329841-.5674354046.3484133099-.7863602857.5674354046-.2190220947.2190220947-.3285817488.4678887446-.3285817488.7465999498,0,.0665912716.016526301.1527224637.04977333.2588796441.0330526019.1063516074.0762154115.1791645453.1294884288.2189248811l-.19909332.1394042094-2.0507195236-2.1900265195.19909332-.1394042094c.0528841631.0268309357.1060599668.0532730173.1593329841.0797150988.0528841631.0267337222.1125732737.0397603359.1791645453.0397603359.0796178853,0,.2255354015-.09954666.4379469758-.2986399799.2122171472-.19909332.5043438203-.4181154146.8760883786-.6569690704.3713557042-.2389508694.8361336157-.457972964,1.3936532397-.657066284.5574224105-.19909332,1.2210020013-.2986399799,1.9909331995-.2986399799.5042466067,0,.9985774329.0597863241,1.4831869055.1792617588.4844150456.1193782211.9158487145.3085557605,1.2941065797.567338191.3782578652.2588796441.6835083655.590766653.9158487145.9954665998.2320487084.4050888009.3484133099.8994196271.3484133099,1.4832841191,0,.624013682-.1194754347,1.1416757566-.3583290905,1.5528890102-.2389508694.4116021078-.5544087909.7600154177-.9456932698,1.0452399298-.3916733331.2856133662-.8331199961.5276750687-1.3240483485.7267683887-.4911227795.19909332-.9923557666.3950758068-1.5031156802.5872669657-.5111487677.1925800131-1.0022715472.3950758068-1.473271125.607292954-.4712912183.2124115743-.8860041592.4846094726-1.2443332497.816204841v.19909332h6.5700795585c.1459175162,0,.2818220384-.0264420816.4081024205-.0796178853.1259887415-.0528841631.1891775394-.2121199337.1891775394-.4778045252h.2388536558v2.64790227Z"/>
        <path d="m128.8770748045,98.5c.7696395577,0,1.4897974259.1328909025,2.1601819642.3981866399.6700928977.2656845915,1.2542490303.6371375093,1.7519823302,1.1149420344s.8891149923,1.0421290966,1.174631145,1.6922932196c.2853217256.6504557636.4281284087,1.3672111581.4281284087,2.1502661836,0,.7832494526-.1428066831,1.5000048471-.4281284087,2.1501689701-.2855161527.6504557636-.6768978451,1.2113778613-1.174631145,1.682377439-.4977332999.4712912183-1.0818894325.8330227826-1.7519823302,1.0850002656-.6703845383.2522691237-1.3905424066.3782578652-2.1601819642.3782578652-.7699311983,0-1.4900890665-.1259887415-2.1601819642-.3782578652-.6703845383-.2519774831-1.2542490303-.6137090473-1.7519823302-1.0850002656-.4977332999-.4709995777-.8894066329-1.0319216754-1.174631145-1.682377439-.2856133662-.650164123-.4281284087-1.3669195175-.4281284087-2.1501689701,0-.7830550255.1425150425-1.49981042.4281284087-2.1502661836.2852245121-.650164123.6768978451-1.2144886944,1.174631145-1.6922932196s1.0815977919-.8492574429,1.7519823302-1.1149420344c.6700928977-.2652957374,1.3902507659-.3981866399,2.1601819642-.3981866399Zm0,1.7122219943c-.4647779115,0-.8959199398.0930333531-1.2941065797.2787112052-.3981866399.1860667062-.740086643.441446663-1.0253111551.7665287245-.2856133662.3253737021-.5111487677.7102420877-.6768978451,1.1547995839-.1661379315.4448491368-.2488666499.9257644951-.2488666499,1.4434265697,0,.5175648611.0827287184.9988690735.2488666499,1.4434265697.1657490774.4448491368.3912844789.8296203088.6768978451,1.1547023703.2852245121.3253737021.6271245151.5807536589,1.0253111551.7665287245.3981866399.1859694927.8293286682.2787112052,1.2941065797.2787112052.4644862709,0,.8959199398-.0927417125,1.2941065797-.2787112052.3981866399-.1857750656.7397950024-.4411550224,1.0253111551-.7665287245.2853217256-.3250820615.5108571271-.7098532335.6768978451-1.1547023703.1658462909-.4445574962.2488666499-.9258617086.2488666499-1.4434265697,0-.5176620746-.083020359-.9985774329-.2488666499-1.4434265697-.166040718-.4445574962-.3915761195-.8294258818-.6768978451-1.1547995839-.2855161527-.3250820615-.6271245151-.5804620183-1.0253111551-.7665287245-.3981866399-.1856778521-.8296203088-.2787112052-1.2941065797-.2787112052Z"/>
        <path d="m145.8794304588,109.3505859375h-.2388536558c0-.1462091568-.0631887978-.2258270421-.1891775394-.2388536558-.1262803821-.0134154678-.2621849043-.0199287747-.4081024205-.0199287747h-8.3818482128c-.1462091568,0-.2656845915.0099157806-.3583290905.0298445553-.0930333531.0199287747-.1394042094.0896308794-.1394042094.2091063141h-.2389508694v-.7167553945c0-.7033399267.1757620715-1.3072304069.5276750687-1.8117686543.351524143-.5042466067.7928735926-.9488041029,1.323951135-1.3339641291.5306886883-.3847711721,1.1015265666-.7232687014,1.7122219943-1.0152981609.6103065736-.2918350325,1.1811444519-.5805592318,1.7121247808-.8660753845.5307859018-.2853217256.9721353513-.5804620183,1.3240483485-.8860041592.351524143-.3051532868.5275778552-.6634823773.5275778552-1.075084485,0-.2787112052-.0631887978-.5076490805-.1891775394-.6869108393-.1262803821-.1791645453-.2886269858-.3250820615-.4877203058-.4379469758-.19909332-.1126704872-.4181154146-.1891775394-.657066284-.2289378752-.2388536558-.0398575494-.4712912183-.0597863241-.6968266198-.0597863241-.2258270421,0-.5045382473.0398575494-.8361336157.1194754347-.3319842225.0796178853-.6505529771.19909332-.9557062639.3583290905-.3054449274.1593329841-.5674354046.3484133099-.7863602857.5674354046-.2190220947.2190220947-.3285817488.4678887446-.3285817488.7465999498,0,.0665912716.016526301.1527224637.04977333.2588796441.0330526019.1063516074.0762154115.1791645453.1294884288.2189248811l-.19909332.1394042094-2.0507195236-2.1900265195.19909332-.1394042094c.0528841631.0268309357.1060599668.0532730173.1593329841.0797150988.0528841631.0267337222.1125732737.0397603359.1791645453.0397603359.0796178853,0,.2255354015-.09954666.4379469758-.2986399799.2122171472-.19909332.5043438203-.4181154146.8760883786-.6569690704.3713557042-.2389508694.8361336157-.457972964,1.3936532397-.657066284.5574224105-.19909332,1.2210020013-.2986399799,1.9909331995-.2986399799.5042466067,0,.9985774329.0597863241,1.4831869055.1792617588.4844150456.1193782211.9158487145.3085557605,1.2941065797.567338191.3782578652.2588796441.6835083655.590766653.9158487145.9954665998.2320487084.4050888009.3484133099.8994196271.3484133099,1.4832841191,0,.624013682-.1194754347,1.1416757566-.3583290905,1.5528890102-.2389508694.4116021078-.5544087909.7600154177-.9456932698,1.0452399298-.3916733331.2856133662-.8331199961.5276750687-1.3240483485.7267683887-.4911227795.19909332-.9923557666.3950758068-1.5031156802.5872669657-.5111487677.1925800131-1.0022715472.3950758068-1.473271125.607292954-.4712912183.2124115743-.8860041592.4846094726-1.2443332497.816204841v.19909332h6.5700795585c.1459175162,0,.2818220384-.0264420816.4081024205-.0796178853.1259887415-.0528841631.1891775394-.2121199337.1891775394-.4778045252h.2388536558v2.64790227Z"/>
        <path d="m148.1887379859,100.0529862238l.2389508694-.1791645453c.1060599668.066494058.2190220947.09954666.3384975293.09954666.0662024174,0,.1890803258-.0762154115.3682448711-.2290350888.1792617588-.1524308231.4411550224-.3215823742.7864574992-.5076490805.3450108362-.1856778521.7864574992-.3549266168,1.323951135-.5076490805.5375908493-.1524308231,1.191157446-.2290350888,1.9610886443-.2290350888.5176620746,0,1.0384349823.0532730173,1.5629020043.1593329841.5241753814.1063516074,1.0019799066.2756003721,1.4334135755.5076490805.4312392419.2324375625.7830550255.5310775424,1.0552529239.8959199398.2719062578.3652312515.4081024205.8063862739.4081024205,1.323951135,0,.4779017387-.1393069958.9192511882-.4181154146,1.3240483485-.2787112052.4049915874-.6569690704.6603715442-1.1347735956.766431511v.0398575494c.5705462377.132793689,1.0383377688.3950758068,1.4035690203.7864574992.3649396109.3915761195.5475066299.8859069457.5475066299,1.4831869055,0,.6768978451-.1692487647,1.2344174691-.5076490805,1.6723644449-.3384975293.4380441893-.7600154177.7864574992-1.2642620244,1.0452399298-.5045382473.2588796441-1.0586553976.4315308825-1.6624486643.5176620746-.6040849073.0862284057-1.1715203119.1293912153-1.7022090002.1293912153-.5972799599,0-1.1547995839-.0565782774-1.6723644449-.1691515511-.5176620746-.1126704872-.9756350386-.2454641762-1.3738216785-.3981866399-.3981866399-.1524308231-.7266711751-.2918350325-.9854536057-.4181154146-.2588796441-.1259887415-.441446663-.1891775394-.5475066299-.1891775394-.0665912716,0-.1228779084.0134154678-.1692487647.0398575494-.0466624969.0267337222-.0964358269.0531758037-.14931999.0796178853l-.1791645453-.0596891106,1.1547023703-2.8670215782.2190220947.1194754347c-.0134154678.0267337222-.0199287747.0731045784-.0199287747.1394042094v.1393069958c0,.3055421409.1459175162.5774483987.4380441893.8163020545.2917378189.2389508694.6401511289.441446663,1.0452399298.607292954.4046999468.166040718.8293286682.2920294595,1.274177805.3782578652.4445574962.0864228327.8194128876.1293912153,1.124857815.1293912153.2389508694,0,.5207729077-.0230396078.8461466098-.0697021047.3250820615-.0463708563.6302353483-.1293912153.9158487145-.2488666499.2852245121-.1194754347.5275778552-.2818220384.7266711751-.4877203058.19909332-.2057038403.2986399799-.4744020515.2986399799-.8063862739,0-.3185687546-.0964358269-.5739487114-.2886269858-.7665287245-.1925800131-.192191159-.4281284087-.3415111489-.706839614-.4479599699-.2787112052-.1060599668-.574240352-.1757620715-.8859069457-.2090091005-.3120554478-.0329553884-.5808508724-.04977333-.8063862739-.04977333-.3185687546,0-.5941691267.0298445553-.8262178351.0896308794-.232340349.0596891106-.3882708593.2090091005-.4678887446.4479599699h-.2388536558v-2.7076885941h.2388536558c.0264420816.2656845915.1692487647.441446663.4280311952.5275778552.2588796441.0865200463.5475066299.1293912153.8660753845.1293912153.2122171472,0,.457972964-.0199287747.7366841692-.0596891106.2787112052-.0398575494.5406044689-.1126704872.7863602857-.2190220947.2454641762-.1060599668.4545704903-.2519774831.6272217287-.4380441893.1722623843-.1856778521.2587824305-.4180182011.2587824305-.6968266198,0-.2652957374-.0765070521-.4809153583-.2289378752-.6470532899-.1527224637-.1657490774-.3518157836-.2951402927-.5972799599-.3881736458-.2457558168-.0927417125-.5176620746-.1558332968-.8163020545-.1891775394-.2986399799-.0329553884-.6006824336-.04977333-.9058357204-.04977333-.358426304,0-.7236575555.0398575494-1.0950132597.1194754347-.3717445584.0796178853-.7102420877.1860667062-1.0153953745.3185687546-.3055421409.132793689-.557519624.2787112052-.7566129439.4379469758-.19909332.1593329841-.2986399799.3185687546-.2986399799.4779017387,0,.0531758037.0066105204.116267388.0199287747.1890803258.0131238272.0731045784.0329553884.1428066831.0597863241.2091063141l-.1792617588.1193782211-1.5927465596-2.0306935354Z"/>
      </g>
    </g>
  </g>
</svg>