<?xml version="1.0" encoding="UTF-8"?>
<svg id="_레이어_1" data-name="레이어 1" xmlns="http://www.w3.org/2000/svg" viewBox="0 0 350 350">
  <defs>
    <style>
      .cls-1 {
        fill: #fff;
      }
    </style>
  </defs>
  <circle class="cls-1" cx="175" cy="175" r="162.9707446909"/>
  <g>
    <polygon points="176.1367860808 126.0853620361 132.6779464405 152.8292633532 132.6779464405 203.8027070876 176.1367860808 228.5721765173 219.5956257212 202.9740783229 219.5956257212 149.9560344144 176.1367860808 126.0853620361"/>
    <path d="m87.5476129678,70.9260655694v55.1592964666l-43.4588396404,25.0724074848s3.3429876646-46.801827305,43.4588396404-80.2317039515Z"/>
    <path d="m264.7259591939,278.1913007774v-55.1592964666l43.4588396404-25.0724074848s-3.3429876647,46.801827305-43.4588396404,80.2317039515Z"/>
    <path d="m43.1173588495,198.501199093l46.9213630569,28.9988564529-1.5196915734,50.1496450386s-38.0545591723-27.4488092968-45.4016714835-79.1485014915Z"/>
    <path d="m224.8303139383,52.2157343941l-49.3884214798,24.5628135691-41.8018022725-27.747174392s43.393982684-17.8479374841,91.1902237523,3.1843608229Z"/>
    <path d="m221.7589211931,302.2663726969l-48.6528533454-25.989379524-42.5914141759,26.5191967916s42.8563228097,19.1029369691,91.2442675213-.5298172676Z"/>
    <path d="m308.244980419,157.8110754681l-46.2457109214-30.0646338423,2.6665095782-50.1017573209s37.4166860034,28.3121566493,43.5792013431,80.1663911632Z"/>
  </g>
</svg>