<?xml version="1.0" encoding="UTF-8"?>
<svg width="390px" height="39px" viewBox="0 0 390 39" version="1.1" xmlns="http://www.w3.org/2000/svg" xmlns:xlink="http://www.w3.org/1999/xlink">
    <!-- Generator: Sketch 55.2 (78181) - https://sketchapp.com -->
    <title>Artboard</title>
    <desc>Created with Sketch.</desc>
    <g id="Artboard" stroke="none" stroke-width="1" fill="none" fill-rule="evenodd">
        <g id="page-profile">
            <rect id="Rectangle" fill="#FFFFFF" fill-rule="nonzero" x="0" y="2" width="390" height="37"></rect>
            <g id="Group" transform="translate(38.000000, 0.000000)">
                <path d="M75,0 L239,0 C237.396,0.63337 236.327,2.165139 236.286,3.88899 L236.242,5.74719 C236.242,19.6939 224.936,31 210.989,31 L103.011,31 C89.064,31 77.758,19.6939 77.758,5.74719 L77.714,3.88899 C77.673,2.165139 76.604,0.63337 75,0 Z" id="Path" fill="#000000" fill-rule="nonzero"></path>
                <path d="M313.5,21.9999 C313.5,20.8033 314.47,19.8333 315.667,19.8333 L332.334,19.8333 C333.53,19.8333 334.5,20.8033 334.5,21.9999 L334.5,27.9999 C334.5,29.1965 333.53,30.1666 332.334,30.1666 L315.667,30.1666 C314.47,30.1666 313.5,29.1965 313.5,27.9999 L313.5,21.9999 Z" id="Path" stroke="#000000" opacity="0.35"></path>
                <path d="M336,22.9999 L336,26.9999 C336.805,26.6611 337.328,25.873 337.328,24.9999 C337.328,24.1268 336.805,23.3387 336,22.9999 Z" id="Path" fill="#000000" fill-rule="nonzero" opacity="0.4"></path>
                <path d="M315,22.4333 C315,21.8257 315.493,21.3333 316.1,21.3333 L331.9,21.3333 C332.508,21.3333 333,21.8257 333,22.4333 L333,27.5666 C333,28.1741 332.508,28.6666 331.9,28.6666 L316.1,28.6666 C315.493,28.6666 315,28.1741 315,27.5666 L315,22.4333 Z" id="Path" fill="#000000" fill-rule="nonzero"></path>
                <path d="M300.331,21.6079 C302.547,21.608 304.678,22.4594 306.284,23.9862 C306.405,24.1041 306.598,24.1026 306.717,23.9829 L307.873,22.8162 C307.933,22.7555 307.967,22.6733 307.966021,22.5877 C307.966021,22.5021 307.931,22.4202 307.87,22.3602 C303.655,18.3207 297.005,18.3207 292.79,22.3602 C292.729,22.4202 292.695,22.502 292.694,22.5876 C292.694,22.6732 292.727,22.7555 292.787,22.8162 L293.944,23.9829 C294.063,24.1028 294.256,24.1043 294.377,23.9862 C295.983,22.4593 298.115,21.6079 300.331,21.6079 Z M300.331,25.4036 C301.548,25.4035 302.722,25.856 303.625,26.6732 C303.747,26.7892 303.939,26.7867 304.058,26.6676 L305.213,25.5009 C305.274,25.4397 305.307,25.3567 305.306022,25.2704 C305.305,25.1842 305.27,25.1018 305.208,25.0419 C302.46,22.4855 298.204,22.4855 295.456,25.0419 C295.394,25.1018 295.358,25.1842 295.357,25.2705 C295.357,25.3568 295.39,25.4398 295.451,25.5009 L296.606,26.6676 C296.725,26.7867 296.917,26.7892 297.039,26.6732 C297.941,25.8566 299.114,25.4041 300.331,25.4036 Z M302.644021,27.9574 C302.645,28.0439 302.611,28.1273 302.55,28.1879 L300.552,30.2036 C300.494,30.2628 300.414,30.2961 300.331,30.2961 C300.247,30.2961 300.168,30.2628 300.109,30.2036 L298.111,28.1879 C298.05,28.1272 298.016,28.0438 298.018,27.9573 C298.019,27.8708 298.057,27.7889 298.121,27.7309 C299.397,26.652 301.265,26.652 302.54,27.7309 C302.605,27.7889 302.642,27.8709 302.644021,27.9574 Z" id="Shape" fill="#000000"></path>
                <path d="M286.667,19.6665 L285.667,19.6665 C285.115,19.6665 284.667,20.1142 284.667,20.6665 L284.667,29.3332 C284.667,29.8855 285.115,30.3332 285.667,30.3332 L286.667,30.3332 C287.219,30.3332 287.667,29.8855 287.667,29.3332 L287.667,20.6665 C287.667,20.1142 287.219,19.6665 286.667,19.6665 Z M281,21.9998 L282,21.9998 C282.553,21.9998 283,22.4476 283,22.9998 L283,29.3332 C283,29.8855 282.553,30.3332 282,30.3332 L281,30.3332 C280.448,30.3332 280,29.8855 280,29.3332 L280,22.9998 C280,22.4476 280.448,21.9998 281,21.9998 Z M277.334,24.3332 L276.334,24.3332 C275.781,24.3332 275.334,24.7809 275.334,25.3332 L275.334,29.3332 C275.334,29.8855 275.781,30.3332 276.334,30.3332 L277.334,30.3332 C277.886,30.3332 278.334,29.8855 278.334,29.3332 L278.334,25.3332 C278.334,24.7809 277.886,24.3332 277.334,24.3332 Z M272.667,26.3332 L271.667,26.3332 C271.115,26.3332 270.667,26.7809 270.667,27.3332 L270.667,29.3332 C270.667,29.8855 271.115,30.3332 271.667,30.3332 L272.667,30.3332 C273.219,30.3332 273.667,29.8855 273.667,29.3332 L273.667,27.3332 C273.667,26.7809 273.219,26.3332 272.667,26.3332 Z" id="Shape" fill="#000000"></path>
                <path d="M3.9943,19.08 C2.9143,19.08 2.0143,19.425 1.2943,20.13 C0.5743,20.82 0.2143,21.705 0.2143,22.785 C0.2143,23.835 0.5143,24.69 1.1443,25.35 C1.7743,26.04 2.6293,26.385 3.6793,26.385 C4.2193,26.385 4.6993,26.28 5.1193,26.085 C5.5543,25.875 5.9293,25.545 6.2443,25.11 L6.3193,25.11 L6.3193,25.245 C6.3193,26.235 6.1093,27.06 5.7043,27.72 C5.2693,28.41 4.6993,28.77 3.9943,28.77 C2.9593,28.77 2.3443,28.275 2.1343,27.285 L0.4243,27.285 C0.6793,29.235 1.8643,30.21 3.9793,30.21 C5.2093,30.21 6.1993,29.67 6.9343,28.59 C7.6543,27.51 8.0293,26.085 8.0293,24.345 C8.0293,22.695 7.6843,21.42 6.9943,20.49 C6.3043,19.545 5.2993,19.08 3.9943,19.08 Z M4.0543,20.535 C4.6543,20.535 5.1643,20.73 5.5543,21.12 C5.9443,21.51 6.1393,22.035 6.1393,22.725 C6.1393,23.415 5.9443,23.955 5.5843,24.36 C5.2093,24.75 4.6993,24.96 4.0543,24.96 C3.3943,24.96 2.8843,24.75 2.5243,24.36 C2.1343,23.97 1.9543,23.445 1.9543,22.785 C1.9543,22.125 2.1343,21.585 2.5243,21.165 C2.9143,20.745 3.4243,20.535 4.0543,20.535 Z M10.1634,22.185 C9.8334,22.185 9.5484,22.29 9.3384,22.53 C9.0984,22.755 8.9934,23.04 8.9934,23.37 C8.9934,23.7 9.0984,23.97 9.3384,24.21 C9.5484,24.42 9.8334,24.54 10.1634,24.54 C10.4934,24.54 10.7634,24.42 11.0034,24.21 C11.2284,23.97 11.3484,23.7 11.3484,23.37 C11.3484,23.04 11.2284,22.755 11.0034,22.53 C10.7634,22.29 10.4934,22.185 10.1634,22.185 Z M10.1634,27.675 C9.8334,27.675 9.5484,27.78 9.3384,28.02 C9.0984,28.245 8.9934,28.53 8.9934,28.86 C8.9934,29.19 9.0984,29.46 9.3384,29.7 C9.5484,29.91 9.8334,30.03 10.1634,30.03 C10.4934,30.03 10.7634,29.91 11.0034,29.7 C11.2284,29.46 11.3484,29.19 11.3484,28.86 C11.3484,28.53 11.2284,28.245 11.0034,28.02 C10.7634,27.78 10.4934,27.675 10.1634,27.675 Z M17.2593,19.29 L12.0243,26.04 L12.0243,27.705 L17.1993,27.705 L17.1993,30 L18.8643,30 L18.8643,27.705 L20.4543,27.705 L20.4543,26.31 L18.8643,26.31 L18.8643,19.29 L17.2593,19.29 Z M17.1543,21.51 L17.1993,21.51 L17.1993,26.31 L13.4493,26.31 L17.1543,21.51 Z M23.7134,19.29 C23.3534,19.665 22.9034,20.01 22.3634,20.34 C21.8234,20.64 21.3134,20.85 20.8334,20.97 L20.8334,22.71 C21.8234,22.425 22.6334,21.99 23.2784,21.405 L23.2784,30 L25.0334,30 L25.0334,19.29 L23.7134,19.29 Z" id="Shape" fill="#000000" fill-rule="nonzero"></path>
            </g>
        </g>
    </g>
</svg>