<svg width="390" height="44" viewBox="0 0 390 44" fill="none" xmlns="http://www.w3.org/2000/svg">
<g clip-path="url(#clip0_2_208)">
<path d="M113 -2H277C275.396 -1.36663 274.327 0.165139 274.286 1.88899L274.242 3.74719C274.242 17.6939 262.936 29 248.989 29H141.011C127.064 29 115.758 17.6939 115.758 3.74719L115.714 1.88899C115.673 0.165139 114.604 -1.36663 113 -2Z" fill="black"/>
<path opacity="0.35" d="M351.5 19.9999C351.5 18.8033 352.47 17.8333 353.667 17.8333H370.334C371.53 17.8333 372.5 18.8033 372.5 19.9999V25.9999C372.5 27.1965 371.53 28.1666 370.334 28.1666H353.667C352.47 28.1666 351.5 27.1965 351.5 25.9999V19.9999Z" stroke="black"/>
<path opacity="0.4" d="M374 20.9999V24.9999C374.805 24.6611 375.328 23.873 375.328 22.9999C375.328 22.1268 374.805 21.3387 374 20.9999Z" fill="black"/>
<path d="M353 20.4333C353 19.8257 353.493 19.3333 354.1 19.3333H369.9C370.508 19.3333 371 19.8257 371 20.4333V25.5666C371 26.1741 370.508 26.6666 369.9 26.6666H354.1C353.493 26.6666 353 26.1741 353 25.5666V20.4333Z" fill="black"/>
<path fill-rule="evenodd" clip-rule="evenodd" d="M338.331 19.6079C340.547 19.608 342.678 20.4594 344.284 21.9862C344.405 22.1041 344.598 22.1026 344.717 21.9829L345.873 20.8162C345.933 20.7555 345.967 20.6733 345.966 20.5877C345.966 20.5021 345.931 20.4202 345.87 20.3602C341.655 16.3207 335.005 16.3207 330.79 20.3602C330.729 20.4202 330.695 20.502 330.694 20.5876C330.694 20.6732 330.727 20.7555 330.787 20.8162L331.944 21.9829C332.063 22.1028 332.256 22.1043 332.377 21.9862C333.983 20.4593 336.115 19.6079 338.331 19.6079ZM338.331 23.4036C339.548 23.4035 340.722 23.856 341.625 24.6732C341.747 24.7892 341.939 24.7867 342.058 24.6676L343.213 23.5009C343.273 23.4397 343.307 23.3567 343.306 23.2704C343.305 23.1842 343.27 23.1018 343.208 23.0419C340.46 20.4855 336.204 20.4855 333.456 23.0419C333.394 23.1018 333.358 23.1842 333.357 23.2705C333.357 23.3568 333.39 23.4398 333.451 23.5009L334.606 24.6676C334.725 24.7867 334.917 24.7892 335.039 24.6732C335.941 23.8566 337.114 23.4041 338.331 23.4036ZM340.644 25.9574C340.645 26.0439 340.611 26.1273 340.55 26.1879L338.552 28.2036C338.494 28.2628 338.414 28.2961 338.331 28.2961C338.247 28.2961 338.168 28.2628 338.109 28.2036L336.111 26.1879C336.05 26.1272 336.016 26.0438 336.018 25.9573C336.019 25.8708 336.057 25.7889 336.121 25.7309C337.397 24.652 339.265 24.652 340.54 25.7309C340.605 25.7889 340.642 25.8709 340.644 25.9574Z" fill="black"/>
<path fill-rule="evenodd" clip-rule="evenodd" d="M324.667 17.6665H323.667C323.115 17.6665 322.667 18.1142 322.667 18.6665V27.3332C322.667 27.8855 323.115 28.3332 323.667 28.3332H324.667C325.219 28.3332 325.667 27.8855 325.667 27.3332V18.6665C325.667 18.1142 325.219 17.6665 324.667 17.6665ZM319 19.9998H320C320.553 19.9998 321 20.4476 321 20.9998V27.3332C321 27.8855 320.553 28.3332 320 28.3332H319C318.448 28.3332 318 27.8855 318 27.3332V20.9998C318 20.4476 318.448 19.9998 319 19.9998ZM315.334 22.3332H314.334C313.781 22.3332 313.334 22.7809 313.334 23.3332V27.3332C313.334 27.8855 313.781 28.3332 314.334 28.3332H315.334C315.886 28.3332 316.334 27.8855 316.334 27.3332V23.3332C316.334 22.7809 315.886 22.3332 315.334 22.3332ZM310.667 24.3332H309.667C309.115 24.3332 308.667 24.7809 308.667 25.3332V27.3332C308.667 27.8855 309.115 28.3332 309.667 28.3332H310.667C311.219 28.3332 311.667 27.8855 311.667 27.3332V25.3332C311.667 24.7809 311.219 24.3332 310.667 24.3332Z" fill="black"/>
<path d="M41.9943 17.08C40.9143 17.08 40.0143 17.425 39.2943 18.13C38.5743 18.82 38.2143 19.705 38.2143 20.785C38.2143 21.835 38.5143 22.69 39.1443 23.35C39.7743 24.04 40.6293 24.385 41.6793 24.385C42.2193 24.385 42.6993 24.28 43.1193 24.085C43.5543 23.875 43.9293 23.545 44.2443 23.11H44.3193V23.245C44.3193 24.235 44.1093 25.06 43.7043 25.72C43.2693 26.41 42.6993 26.77 41.9943 26.77C40.9593 26.77 40.3443 26.275 40.1343 25.285H38.4243C38.6793 27.235 39.8643 28.21 41.9793 28.21C43.2093 28.21 44.1993 27.67 44.9343 26.59C45.6543 25.51 46.0293 24.085 46.0293 22.345C46.0293 20.695 45.6843 19.42 44.9943 18.49C44.3043 17.545 43.2993 17.08 41.9943 17.08ZM42.0543 18.535C42.6543 18.535 43.1643 18.73 43.5543 19.12C43.9443 19.51 44.1393 20.035 44.1393 20.725C44.1393 21.415 43.9443 21.955 43.5843 22.36C43.2093 22.75 42.6993 22.96 42.0543 22.96C41.3943 22.96 40.8843 22.75 40.5243 22.36C40.1343 21.97 39.9543 21.445 39.9543 20.785C39.9543 20.125 40.1343 19.585 40.5243 19.165C40.9143 18.745 41.4243 18.535 42.0543 18.535ZM48.1634 20.185C47.8334 20.185 47.5484 20.29 47.3384 20.53C47.0984 20.755 46.9934 21.04 46.9934 21.37C46.9934 21.7 47.0984 21.97 47.3384 22.21C47.5484 22.42 47.8334 22.54 48.1634 22.54C48.4934 22.54 48.7634 22.42 49.0034 22.21C49.2284 21.97 49.3484 21.7 49.3484 21.37C49.3484 21.04 49.2284 20.755 49.0034 20.53C48.7634 20.29 48.4934 20.185 48.1634 20.185ZM48.1634 25.675C47.8334 25.675 47.5484 25.78 47.3384 26.02C47.0984 26.245 46.9934 26.53 46.9934 26.86C46.9934 27.19 47.0984 27.46 47.3384 27.7C47.5484 27.91 47.8334 28.03 48.1634 28.03C48.4934 28.03 48.7634 27.91 49.0034 27.7C49.2284 27.46 49.3484 27.19 49.3484 26.86C49.3484 26.53 49.2284 26.245 49.0034 26.02C48.7634 25.78 48.4934 25.675 48.1634 25.675ZM55.2593 17.29L50.0243 24.04V25.705H55.1993V28H56.8643V25.705H58.4543V24.31H56.8643V17.29H55.2593ZM55.1543 19.51H55.1993V24.31H51.4493L55.1543 19.51ZM61.7134 17.29C61.3534 17.665 60.9034 18.01 60.3634 18.34C59.8234 18.64 59.3134 18.85 58.8334 18.97V20.71C59.8234 20.425 60.6334 19.99 61.2784 19.405V28H63.0334V17.29H61.7134Z" fill="black"/>
</g>
<defs>
<clipPath id="clip0_2_208">
<rect width="390" height="44" fill="white"/>
</clipPath>
</defs>
</svg>
