<svg width="345" height="50" viewBox="0 0 345 50" fill="none" xmlns="http://www.w3.org/2000/svg">
<rect width="345" height="50" rx="25" fill="#F2F2F2"/>
<path d="M49.3262 22.961C49.3262 23.3057 49.2565 23.61 49.1172 23.874C48.9778 24.138 48.7835 24.3543 48.5342 24.523C48.2922 24.6917 48.0062 24.809 47.6762 24.875V24.897C48.2995 24.9777 48.7688 25.1793 49.0842 25.502C49.4068 25.8247 49.5682 26.2647 49.5682 26.822C49.5682 27.262 49.4618 27.658 49.2492 28.01C49.0438 28.3547 48.7285 28.626 48.3032 28.824C47.8852 29.0147 47.3572 29.11 46.7192 29.11C46.3012 29.11 45.9088 29.0733 45.5422 29C45.1755 28.9193 44.8418 28.8057 44.5412 28.659V28.065C44.8418 28.2117 45.1865 28.3327 45.5752 28.428C45.9638 28.5233 46.3488 28.571 46.7302 28.571C47.4782 28.571 48.0282 28.4133 48.3802 28.098C48.7395 27.7827 48.9192 27.3537 48.9192 26.811C48.9192 26.4223 48.8238 26.1107 48.6332 25.876C48.4425 25.6413 48.1712 25.4727 47.8192 25.37C47.4672 25.26 47.0528 25.205 46.5762 25.205H45.7402V24.655H46.5872C46.9978 24.655 47.3608 24.5927 47.6762 24.468C47.9915 24.3433 48.2372 24.1563 48.4132 23.907C48.5965 23.6577 48.6882 23.3533 48.6882 22.994C48.6882 22.5247 48.5378 22.1727 48.2372 21.938C47.9438 21.696 47.5442 21.575 47.0382 21.575C46.7668 21.575 46.5102 21.6043 46.2682 21.663C46.0262 21.7143 45.7952 21.795 45.5752 21.905C45.3625 22.0077 45.1462 22.136 44.9262 22.29L44.6072 21.85C44.8125 21.6887 45.0362 21.5493 45.2782 21.432C45.5275 21.3073 45.7988 21.212 46.0922 21.146C46.3855 21.0727 46.7008 21.036 47.0382 21.036C47.7642 21.036 48.3252 21.212 48.7212 21.564C49.1245 21.9087 49.3262 22.3743 49.3262 22.961ZM55.4843 25.051C55.4843 25.711 55.433 26.294 55.3303 26.8C55.235 27.2987 55.0847 27.7203 54.8793 28.065C54.674 28.4097 54.41 28.67 54.0873 28.846C53.772 29.022 53.3943 29.11 52.9543 29.11C52.4043 29.11 51.9423 28.956 51.5683 28.648C51.1943 28.34 50.912 27.8853 50.7213 27.284C50.5307 26.6827 50.4353 25.9383 50.4353 25.051C50.4353 24.2443 50.516 23.5403 50.6773 22.939C50.846 22.3377 51.1137 21.8683 51.4803 21.531C51.8543 21.1937 52.3493 21.025 52.9653 21.025C53.5667 21.025 54.0507 21.19 54.4173 21.52C54.7913 21.85 55.0627 22.3193 55.2313 22.928C55.4 23.5293 55.4843 24.237 55.4843 25.051ZM51.0623 25.051C51.0623 25.843 51.1283 26.4993 51.2603 27.02C51.3923 27.5333 51.5977 27.9183 51.8763 28.175C52.155 28.4317 52.5143 28.56 52.9543 28.56C53.409 28.56 53.772 28.4353 54.0433 28.186C54.322 27.9293 54.5237 27.5407 54.6483 27.02C54.7803 26.4993 54.8463 25.843 54.8463 25.051C54.8463 24.3177 54.7877 23.6943 54.6703 23.181C54.5603 22.6603 54.366 22.2643 54.0873 21.993C53.816 21.7143 53.442 21.575 52.9653 21.575C52.4887 21.575 52.111 21.7143 51.8323 21.993C51.5537 22.2717 51.3557 22.6713 51.2383 23.192C51.121 23.7053 51.0623 24.325 51.0623 25.051ZM61.2685 25.051C61.2685 25.711 61.2172 26.294 61.1145 26.8C61.0192 27.2987 60.8688 27.7203 60.6635 28.065C60.4582 28.4097 60.1942 28.67 59.8715 28.846C59.5562 29.022 59.1785 29.11 58.7385 29.11C58.1885 29.11 57.7265 28.956 57.3525 28.648C56.9785 28.34 56.6962 27.8853 56.5055 27.284C56.3148 26.6827 56.2195 25.9383 56.2195 25.051C56.2195 24.2443 56.3002 23.5403 56.4615 22.939C56.6302 22.3377 56.8978 21.8683 57.2645 21.531C57.6385 21.1937 58.1335 21.025 58.7495 21.025C59.3508 21.025 59.8348 21.19 60.2015 21.52C60.5755 21.85 60.8468 22.3193 61.0155 22.928C61.1842 23.5293 61.2685 24.237 61.2685 25.051ZM56.8465 25.051C56.8465 25.843 56.9125 26.4993 57.0445 27.02C57.1765 27.5333 57.3818 27.9183 57.6605 28.175C57.9392 28.4317 58.2985 28.56 58.7385 28.56C59.1932 28.56 59.5562 28.4353 59.8275 28.186C60.1062 27.9293 60.3078 27.5407 60.4325 27.02C60.5645 26.4993 60.6305 25.843 60.6305 25.051C60.6305 24.3177 60.5718 23.6943 60.4545 23.181C60.3445 22.6603 60.1502 22.2643 59.8715 21.993C59.6002 21.7143 59.2262 21.575 58.7495 21.575C58.2728 21.575 57.8952 21.7143 57.6165 21.993C57.3378 22.2717 57.1398 22.6713 57.0225 23.192C56.9052 23.7053 56.8465 24.325 56.8465 25.051ZM63.1257 27.856C63.067 28.12 62.9937 28.4023 62.9057 28.703C62.8177 29.0037 62.7224 29.3007 62.6197 29.594C62.517 29.8873 62.4107 30.1623 62.3007 30.419H61.8167C61.912 30.0963 61.9964 29.781 62.0697 29.473C62.143 29.165 62.209 28.8643 62.2677 28.571C62.3264 28.2777 62.374 27.9953 62.4107 27.724H63.0707L63.1257 27.856ZM73.4708 25.062C73.4708 25.6633 73.3938 26.2097 73.2398 26.701C73.0932 27.1923 72.8732 27.6213 72.5798 27.988C72.2865 28.3473 71.9162 28.626 71.4688 28.824C71.0288 29.0147 70.5155 29.11 69.9288 29.11C69.3348 29.11 68.8178 29.011 68.3778 28.813C67.9378 28.615 67.5712 28.3363 67.2778 27.977C66.9845 27.6177 66.7645 27.1923 66.6178 26.701C66.4712 26.2023 66.3978 25.6523 66.3978 25.051C66.3978 24.2517 66.5298 23.5513 66.7938 22.95C67.0652 22.3487 67.4648 21.8793 67.9928 21.542C68.5282 21.1973 69.1882 21.025 69.9728 21.025C70.7282 21.025 71.3625 21.19 71.8758 21.52C72.3965 21.8427 72.7925 22.3047 73.0638 22.906C73.3352 23.5073 73.4708 24.226 73.4708 25.062ZM67.0688 25.051C67.0688 25.755 67.1715 26.3673 67.3768 26.888C67.5822 27.4087 67.8975 27.8157 68.3228 28.109C68.7482 28.4023 69.2872 28.549 69.9398 28.549C70.5998 28.549 71.1388 28.406 71.5568 28.12C71.9822 27.8267 72.2938 27.4197 72.4918 26.899C72.6972 26.3783 72.7998 25.766 72.7998 25.062C72.7998 23.9693 72.5615 23.1187 72.0848 22.51C71.6155 21.9013 70.9115 21.597 69.9728 21.597C69.3128 21.597 68.7665 21.74 68.3338 22.026C67.9085 22.312 67.5895 22.7153 67.3768 23.236C67.1715 23.7567 67.0688 24.3617 67.0688 25.051ZM75.2434 29H74.6164V20.64H75.2434V29ZM75.7051 23.148H76.3761L77.7621 26.789C77.8427 27.0017 77.9161 27.1997 77.9821 27.383C78.0481 27.5663 78.1067 27.7387 78.1581 27.9C78.2094 28.054 78.2534 28.197 78.2901 28.329H78.3231C78.3744 28.1603 78.4441 27.944 78.5321 27.68C78.6201 27.4087 78.7227 27.1153 78.8401 26.8L80.2041 23.148H80.8751L78.2351 30.045C78.1031 30.3823 77.9564 30.672 77.7951 30.914C77.6337 31.156 77.4431 31.3393 77.2231 31.464C77.0031 31.596 76.7391 31.662 76.4311 31.662C76.2917 31.662 76.1634 31.651 76.0461 31.629C75.9361 31.6143 75.8297 31.5923 75.7271 31.563V31.035C75.8224 31.057 75.9177 31.0753 76.0131 31.09C76.1157 31.112 76.2294 31.123 76.3541 31.123C76.5594 31.123 76.7391 31.079 76.8931 30.991C77.0471 30.9103 77.1827 30.782 77.3001 30.606C77.4174 30.4373 77.5237 30.2247 77.6191 29.968L78.0041 28.978L75.7051 23.148ZM87.4343 23.038C88.021 23.038 88.4757 23.203 88.7983 23.533C89.1283 23.863 89.2933 24.3837 89.2933 25.095V29H88.6663V25.117C88.6663 24.5963 88.549 24.2113 88.3143 23.962C88.0797 23.7053 87.7607 23.577 87.3573 23.577C86.7927 23.577 86.36 23.742 86.0593 24.072C85.766 24.3947 85.6193 24.897 85.6193 25.579V29H84.9923V25.117C84.9923 24.765 84.9373 24.4753 84.8273 24.248C84.7247 24.0207 84.5743 23.852 84.3763 23.742C84.1857 23.632 83.951 23.577 83.6723 23.577C83.3057 23.577 82.994 23.654 82.7373 23.808C82.4807 23.962 82.2827 24.193 82.1433 24.501C82.0113 24.809 81.9453 25.2013 81.9453 25.678V29H81.3293V23.148H81.8243L81.9233 24.083H81.9563C82.059 23.885 82.191 23.709 82.3523 23.555C82.521 23.401 82.7227 23.2763 82.9573 23.181C83.192 23.0857 83.4597 23.038 83.7603 23.038C84.193 23.038 84.556 23.1297 84.8493 23.313C85.1427 23.4963 85.348 23.7713 85.4653 24.138H85.5093C85.678 23.786 85.9273 23.5147 86.2573 23.324C86.5947 23.1333 86.987 23.038 87.4343 23.038ZM93.2657 23.038C94.0137 23.038 94.5967 23.291 95.0147 23.797C95.44 24.303 95.6527 25.051 95.6527 26.041C95.6527 26.701 95.5537 27.262 95.3557 27.724C95.1577 28.1787 94.8754 28.5233 94.5087 28.758C94.1494 28.9927 93.7167 29.11 93.2107 29.11C92.866 29.11 92.5654 29.0587 92.3087 28.956C92.052 28.8533 91.8394 28.7177 91.6707 28.549C91.502 28.3803 91.37 28.1933 91.2747 27.988H91.2307C91.2454 28.1713 91.2564 28.373 91.2637 28.593C91.271 28.8057 91.2747 29.0037 91.2747 29.187V31.596H90.6477V23.148H91.1647L91.2417 24.248H91.2747C91.37 24.0353 91.5057 23.8373 91.6817 23.654C91.8577 23.4707 92.074 23.324 92.3307 23.214C92.5947 23.0967 92.9064 23.038 93.2657 23.038ZM93.1777 23.577C92.745 23.577 92.3894 23.6687 92.1107 23.852C91.832 24.0353 91.623 24.3067 91.4837 24.666C91.3444 25.018 91.2747 25.4543 91.2747 25.975V26.085C91.2747 26.635 91.3407 27.097 91.4727 27.471C91.612 27.8377 91.8174 28.1127 92.0887 28.296C92.3674 28.4793 92.7157 28.571 93.1337 28.571C93.5444 28.571 93.8854 28.472 94.1567 28.274C94.4354 28.0687 94.6444 27.779 94.7837 27.405C94.9304 27.0237 95.0037 26.569 95.0037 26.041C95.0037 25.2417 94.8534 24.633 94.5527 24.215C94.252 23.7897 93.7937 23.577 93.1777 23.577ZM97.3486 23.148V29H96.7326V23.148H97.3486ZM97.0406 20.981C97.18 20.981 97.2863 21.025 97.3596 21.113C97.433 21.1937 97.4696 21.3073 97.4696 21.454C97.4696 21.608 97.433 21.729 97.3596 21.817C97.2863 21.8977 97.18 21.938 97.0406 21.938C96.9086 21.938 96.806 21.8977 96.7326 21.817C96.6593 21.729 96.6226 21.608 96.6226 21.454C96.6226 21.3073 96.6593 21.1937 96.7326 21.113C96.806 21.025 96.9086 20.981 97.0406 20.981ZM101.132 29.11C100.56 29.11 100.073 28.9927 99.6693 28.758C99.2733 28.516 98.969 28.1713 98.7563 27.724C98.551 27.2767 98.4483 26.7377 98.4483 26.107C98.4483 25.447 98.5656 24.8897 98.8003 24.435C99.0423 23.9803 99.3723 23.6357 99.7903 23.401C100.208 23.159 100.7 23.038 101.264 23.038C101.543 23.038 101.803 23.0673 102.045 23.126C102.295 23.1773 102.515 23.247 102.705 23.335L102.54 23.863C102.342 23.7823 102.13 23.72 101.902 23.676C101.675 23.6247 101.459 23.599 101.253 23.599C100.784 23.599 100.388 23.7017 100.065 23.907C99.75 24.105 99.508 24.391 99.3393 24.765C99.178 25.139 99.0973 25.5863 99.0973 26.107C99.0973 26.591 99.167 27.02 99.3063 27.394C99.453 27.7607 99.6766 28.0467 99.9773 28.252C100.278 28.4573 100.663 28.56 101.132 28.56C101.418 28.56 101.686 28.5307 101.935 28.472C102.192 28.4133 102.427 28.3363 102.639 28.241V28.813C102.449 28.8937 102.229 28.9633 101.979 29.022C101.73 29.0807 101.448 29.11 101.132 29.11ZM102.993 26.316V25.755H105.655V26.316H102.993ZM108.964 23.049C109.11 23.049 109.25 23.06 109.382 23.082C109.521 23.0967 109.646 23.1187 109.756 23.148L109.668 23.72C109.55 23.6907 109.433 23.6687 109.316 23.654C109.198 23.632 109.07 23.621 108.931 23.621C108.667 23.621 108.428 23.6723 108.216 23.775C108.003 23.8777 107.82 24.0243 107.666 24.215C107.512 24.4057 107.394 24.633 107.314 24.897C107.233 25.161 107.193 25.458 107.193 25.788V29H106.566V23.148H107.094L107.16 24.248H107.193C107.288 24.0207 107.416 23.819 107.578 23.643C107.746 23.4597 107.948 23.3167 108.183 23.214C108.417 23.104 108.678 23.049 108.964 23.049ZM115.075 26.074C115.075 26.5287 115.016 26.943 114.899 27.317C114.789 27.6837 114.62 28.0027 114.393 28.274C114.173 28.538 113.898 28.7433 113.568 28.89C113.238 29.0367 112.86 29.11 112.435 29.11C112.032 29.11 111.669 29.0403 111.346 28.901C111.031 28.7543 110.759 28.549 110.532 28.285C110.305 28.0137 110.132 27.691 110.015 27.317C109.898 26.943 109.839 26.5287 109.839 26.074C109.839 25.436 109.942 24.8933 110.147 24.446C110.36 23.9913 110.664 23.643 111.06 23.401C111.463 23.159 111.94 23.038 112.49 23.038C113.047 23.038 113.517 23.1663 113.898 23.423C114.287 23.6723 114.58 24.0243 114.778 24.479C114.976 24.9337 115.075 25.4653 115.075 26.074ZM110.488 26.074C110.488 26.5727 110.558 27.0127 110.697 27.394C110.836 27.768 111.053 28.0577 111.346 28.263C111.639 28.4683 112.006 28.571 112.446 28.571C112.901 28.571 113.275 28.4683 113.568 28.263C113.861 28.0503 114.078 27.757 114.217 27.383C114.356 27.0017 114.426 26.5653 114.426 26.074C114.426 25.5827 114.36 25.15 114.228 24.776C114.096 24.402 113.887 24.1087 113.601 23.896C113.315 23.6833 112.941 23.577 112.479 23.577C111.812 23.577 111.313 23.797 110.983 24.237C110.653 24.677 110.488 25.2893 110.488 26.074ZM116.938 27.856C116.88 28.12 116.806 28.4023 116.718 28.703C116.63 29.0037 116.535 29.3007 116.432 29.594C116.33 29.8873 116.223 30.1623 116.113 30.419H115.629C115.725 30.0963 115.809 29.781 115.882 29.473C115.956 29.165 116.022 28.8643 116.08 28.571C116.139 28.2777 116.187 27.9953 116.223 27.724H116.883L116.938 27.856ZM124.973 26.965C124.973 27.4343 124.856 27.8303 124.621 28.153C124.394 28.4683 124.075 28.7067 123.664 28.868C123.254 29.0293 122.788 29.11 122.267 29.11C121.945 29.11 121.655 29.0917 121.398 29.055C121.142 29.0257 120.907 28.989 120.694 28.945C120.482 28.8937 120.291 28.835 120.122 28.769V28.131C120.401 28.241 120.724 28.34 121.09 28.428C121.457 28.5087 121.86 28.549 122.3 28.549C122.704 28.549 123.056 28.4903 123.356 28.373C123.664 28.2557 123.903 28.0833 124.071 27.856C124.247 27.6287 124.335 27.3427 124.335 26.998C124.335 26.6827 124.262 26.426 124.115 26.228C123.976 26.03 123.756 25.8577 123.455 25.711C123.162 25.557 122.784 25.403 122.322 25.249C121.992 25.1317 121.695 25.0107 121.431 24.886C121.175 24.7613 120.955 24.6147 120.771 24.446C120.588 24.2773 120.449 24.0793 120.353 23.852C120.258 23.6247 120.21 23.3497 120.21 23.027C120.21 22.5943 120.32 22.2313 120.54 21.938C120.76 21.6447 121.057 21.421 121.431 21.267C121.813 21.113 122.242 21.036 122.718 21.036C123.1 21.036 123.463 21.0727 123.807 21.146C124.152 21.212 124.478 21.3147 124.786 21.454L124.577 22.004C124.269 21.872 123.958 21.773 123.642 21.707C123.327 21.641 123.012 21.608 122.696 21.608C122.33 21.608 122.007 21.663 121.728 21.773C121.457 21.8757 121.244 22.0333 121.09 22.246C120.936 22.4513 120.859 22.708 120.859 23.016C120.859 23.3533 120.933 23.6247 121.079 23.83C121.226 24.0353 121.439 24.2077 121.717 24.347C121.996 24.479 122.337 24.6147 122.74 24.754C123.202 24.9153 123.598 25.0877 123.928 25.271C124.266 25.447 124.522 25.667 124.698 25.931C124.882 26.195 124.973 26.5397 124.973 26.965ZM130.896 26.074C130.896 26.5287 130.838 26.943 130.72 27.317C130.61 27.6837 130.442 28.0027 130.214 28.274C129.994 28.538 129.719 28.7433 129.389 28.89C129.059 29.0367 128.682 29.11 128.256 29.11C127.853 29.11 127.49 29.0403 127.167 28.901C126.852 28.7543 126.581 28.549 126.353 28.285C126.126 28.0137 125.954 27.691 125.836 27.317C125.719 26.943 125.66 26.5287 125.66 26.074C125.66 25.436 125.763 24.8933 125.968 24.446C126.181 23.9913 126.485 23.643 126.881 23.401C127.285 23.159 127.761 23.038 128.311 23.038C128.869 23.038 129.338 23.1663 129.719 23.423C130.108 23.6723 130.401 24.0243 130.599 24.479C130.797 24.9337 130.896 25.4653 130.896 26.074ZM126.309 26.074C126.309 26.5727 126.379 27.0127 126.518 27.394C126.658 27.768 126.874 28.0577 127.167 28.263C127.461 28.4683 127.827 28.571 128.267 28.571C128.722 28.571 129.096 28.4683 129.389 28.263C129.683 28.0503 129.899 27.757 130.038 27.383C130.178 27.0017 130.247 26.5653 130.247 26.074C130.247 25.5827 130.181 25.15 130.049 24.776C129.917 24.402 129.708 24.1087 129.422 23.896C129.136 23.6833 128.762 23.577 128.3 23.577C127.633 23.577 127.134 23.797 126.804 24.237C126.474 24.677 126.309 25.2893 126.309 26.074ZM134.607 23.038C135.275 23.038 135.784 23.2103 136.136 23.555C136.488 23.8997 136.664 24.4423 136.664 25.183V29H136.048V25.216C136.048 24.6513 135.92 24.237 135.663 23.973C135.407 23.709 135.029 23.577 134.53 23.577C133.892 23.577 133.412 23.764 133.089 24.138C132.767 24.512 132.605 25.0693 132.605 25.81V29H131.989V23.148H132.484L132.583 24.16H132.616C132.726 23.9473 132.873 23.7567 133.056 23.588C133.24 23.4193 133.46 23.2873 133.716 23.192C133.98 23.0893 134.277 23.038 134.607 23.038ZM140.176 23.038C140.638 23.038 141.02 23.1297 141.32 23.313C141.621 23.489 141.863 23.731 142.046 24.039H142.09L142.178 23.148H142.684V29.187C142.684 29.7003 142.596 30.1367 142.42 30.496C142.244 30.8627 141.969 31.145 141.595 31.343C141.229 31.541 140.748 31.64 140.154 31.64C139.722 31.64 139.333 31.6033 138.988 31.53C138.651 31.4567 138.347 31.3613 138.075 31.244V30.639C138.259 30.727 138.46 30.8077 138.68 30.881C138.9 30.9543 139.135 31.0093 139.384 31.046C139.641 31.0827 139.909 31.101 140.187 31.101C140.833 31.101 141.306 30.9323 141.606 30.595C141.914 30.2577 142.068 29.803 142.068 29.231V28.879C142.068 28.725 142.068 28.571 142.068 28.417C142.076 28.2557 142.083 28.1053 142.09 27.966H142.057C141.889 28.34 141.639 28.626 141.309 28.824C140.979 29.0147 140.576 29.11 140.099 29.11C139.344 29.11 138.754 28.8533 138.328 28.34C137.903 27.8267 137.69 27.0897 137.69 26.129C137.69 25.491 137.786 24.941 137.976 24.479C138.167 24.017 138.446 23.6613 138.812 23.412C139.186 23.1627 139.641 23.038 140.176 23.038ZM140.242 23.577C139.817 23.577 139.461 23.6797 139.175 23.885C138.897 24.083 138.688 24.3727 138.548 24.754C138.409 25.128 138.339 25.5863 138.339 26.129C138.339 26.9283 138.497 27.537 138.812 27.955C139.128 28.373 139.579 28.582 140.165 28.582C140.539 28.582 140.847 28.527 141.089 28.417C141.331 28.2997 141.522 28.1383 141.661 27.933C141.808 27.7277 141.911 27.4857 141.969 27.207C142.035 26.921 142.068 26.6167 142.068 26.294V25.909C142.068 25.4103 142.01 24.9887 141.892 24.644C141.775 24.2993 141.581 24.0353 141.309 23.852C141.045 23.6687 140.69 23.577 140.242 23.577ZM146.734 23.038C147.482 23.038 148.065 23.291 148.483 23.797C148.909 24.303 149.121 25.051 149.121 26.041C149.121 26.701 149.022 27.262 148.824 27.724C148.626 28.1787 148.344 28.5233 147.977 28.758C147.618 28.9927 147.185 29.11 146.679 29.11C146.335 29.11 146.034 29.0587 145.777 28.956C145.521 28.8533 145.308 28.7177 145.139 28.549C144.971 28.3803 144.839 28.1933 144.743 27.988H144.699C144.714 28.1713 144.725 28.373 144.732 28.593C144.74 28.8057 144.743 29.0037 144.743 29.187V31.596H144.116V23.148H144.633L144.71 24.248H144.743C144.839 24.0353 144.974 23.8373 145.15 23.654C145.326 23.4707 145.543 23.324 145.799 23.214C146.063 23.0967 146.375 23.038 146.734 23.038ZM146.646 23.577C146.214 23.577 145.858 23.6687 145.579 23.852C145.301 24.0353 145.092 24.3067 144.952 24.666C144.813 25.018 144.743 25.4543 144.743 25.975V26.085C144.743 26.635 144.809 27.097 144.941 27.471C145.081 27.8377 145.286 28.1127 145.557 28.296C145.836 28.4793 146.184 28.571 146.602 28.571C147.013 28.571 147.354 28.472 147.625 28.274C147.904 28.0687 148.113 27.779 148.252 27.405C148.399 27.0237 148.472 26.569 148.472 26.041C148.472 25.2417 148.322 24.633 148.021 24.215C147.721 23.7897 147.262 23.577 146.646 23.577ZM152.269 23.049C152.929 23.049 153.421 23.2103 153.743 23.533C154.066 23.8557 154.227 24.369 154.227 25.073V29H153.754L153.644 28.01H153.611C153.472 28.23 153.311 28.4243 153.127 28.593C152.951 28.7543 152.735 28.8827 152.478 28.978C152.229 29.066 151.921 29.11 151.554 29.11C151.188 29.11 150.869 29.0477 150.597 28.923C150.326 28.791 150.117 28.604 149.97 28.362C149.824 28.12 149.75 27.823 149.75 27.471C149.75 26.8917 149.989 26.4517 150.465 26.151C150.942 25.843 151.635 25.667 152.544 25.623L153.611 25.579V25.161C153.611 24.5817 153.494 24.1747 153.259 23.94C153.032 23.698 152.691 23.577 152.236 23.577C151.936 23.577 151.646 23.6173 151.367 23.698C151.096 23.7713 150.821 23.8777 150.542 24.017L150.344 23.522C150.616 23.3827 150.916 23.269 151.246 23.181C151.576 23.093 151.917 23.049 152.269 23.049ZM152.61 26.085C151.87 26.1217 151.316 26.2537 150.949 26.481C150.583 26.701 150.399 27.0347 150.399 27.482C150.399 27.8413 150.513 28.1163 150.74 28.307C150.968 28.4903 151.276 28.582 151.664 28.582C152.288 28.582 152.764 28.4097 153.094 28.065C153.432 27.7203 153.604 27.2363 153.611 26.613V26.041L152.61 26.085ZM155.071 26.316V25.755H157.733V26.316H155.071ZM160.789 23.038C161.251 23.038 161.632 23.1297 161.933 23.313C162.233 23.489 162.475 23.731 162.659 24.039H162.703L162.791 23.148H163.297V29.187C163.297 29.7003 163.209 30.1367 163.033 30.496C162.857 30.8627 162.582 31.145 162.208 31.343C161.841 31.541 161.361 31.64 160.767 31.64C160.334 31.64 159.945 31.6033 159.601 31.53C159.263 31.4567 158.959 31.3613 158.688 31.244V30.639C158.871 30.727 159.073 30.8077 159.293 30.881C159.513 30.9543 159.747 31.0093 159.997 31.046C160.253 31.0827 160.521 31.101 160.8 31.101C161.445 31.101 161.918 30.9323 162.219 30.595C162.527 30.2577 162.681 29.803 162.681 29.231V28.879C162.681 28.725 162.681 28.571 162.681 28.417C162.688 28.2557 162.695 28.1053 162.703 27.966H162.67C162.501 28.34 162.252 28.626 161.922 28.824C161.592 29.0147 161.188 29.11 160.712 29.11C159.956 29.11 159.366 28.8533 158.941 28.34C158.515 27.8267 158.303 27.0897 158.303 26.129C158.303 25.491 158.398 24.941 158.589 24.479C158.779 24.017 159.058 23.6613 159.425 23.412C159.799 23.1627 160.253 23.038 160.789 23.038ZM160.855 23.577C160.429 23.577 160.074 23.6797 159.788 23.885C159.509 24.083 159.3 24.3727 159.161 24.754C159.021 25.128 158.952 25.5863 158.952 26.129C158.952 26.9283 159.109 27.537 159.425 27.955C159.74 28.373 160.191 28.582 160.778 28.582C161.152 28.582 161.46 28.527 161.702 28.417C161.944 28.2997 162.134 28.1383 162.274 27.933C162.42 27.7277 162.523 27.4857 162.582 27.207C162.648 26.921 162.681 26.6167 162.681 26.294V25.909C162.681 25.4103 162.622 24.9887 162.505 24.644C162.387 24.2993 162.193 24.0353 161.922 23.852C161.658 23.6687 161.302 23.577 160.855 23.577ZM169.338 23.148V29H168.821L168.733 27.999H168.7C168.597 28.2117 168.45 28.4023 168.26 28.571C168.076 28.7397 167.856 28.8717 167.6 28.967C167.343 29.0623 167.046 29.11 166.709 29.11C166.254 29.11 165.873 29.033 165.565 28.879C165.264 28.7177 165.037 28.4793 164.883 28.164C164.729 27.8487 164.652 27.4563 164.652 26.987V23.148H165.279V26.932C165.279 27.4893 165.403 27.9037 165.653 28.175C165.909 28.439 166.283 28.571 166.775 28.571C167.207 28.571 167.567 28.4903 167.853 28.329C168.139 28.1603 168.351 27.911 168.491 27.581C168.637 27.251 168.711 26.8403 168.711 26.349V23.148H169.338ZM171.541 27.856C171.482 28.12 171.409 28.4023 171.321 28.703C171.233 29.0037 171.137 29.3007 171.035 29.594C170.932 29.8873 170.826 30.1623 170.716 30.419H170.232C170.327 30.0963 170.411 29.781 170.485 29.473C170.558 29.165 170.624 28.8643 170.683 28.571C170.741 28.2777 170.789 27.9953 170.826 27.724H171.486L171.541 27.856ZM179.576 26.965C179.576 27.4343 179.459 27.8303 179.224 28.153C178.997 28.4683 178.678 28.7067 178.267 28.868C177.856 29.0293 177.391 29.11 176.87 29.11C176.547 29.11 176.258 29.0917 176.001 29.055C175.744 29.0257 175.51 28.989 175.297 28.945C175.084 28.8937 174.894 28.835 174.725 28.769V28.131C175.004 28.241 175.326 28.34 175.693 28.428C176.06 28.5087 176.463 28.549 176.903 28.549C177.306 28.549 177.658 28.4903 177.959 28.373C178.267 28.2557 178.505 28.0833 178.674 27.856C178.85 27.6287 178.938 27.3427 178.938 26.998C178.938 26.6827 178.865 26.426 178.718 26.228C178.579 26.03 178.359 25.8577 178.058 25.711C177.765 25.557 177.387 25.403 176.925 25.249C176.595 25.1317 176.298 25.0107 176.034 24.886C175.777 24.7613 175.557 24.6147 175.374 24.446C175.191 24.2773 175.051 24.0793 174.956 23.852C174.861 23.6247 174.813 23.3497 174.813 23.027C174.813 22.5943 174.923 22.2313 175.143 21.938C175.363 21.6447 175.66 21.421 176.034 21.267C176.415 21.113 176.844 21.036 177.321 21.036C177.702 21.036 178.065 21.0727 178.41 21.146C178.755 21.212 179.081 21.3147 179.389 21.454L179.18 22.004C178.872 21.872 178.56 21.773 178.245 21.707C177.93 21.641 177.614 21.608 177.299 21.608C176.932 21.608 176.61 21.663 176.331 21.773C176.06 21.8757 175.847 22.0333 175.693 22.246C175.539 22.4513 175.462 22.708 175.462 23.016C175.462 23.3533 175.535 23.6247 175.682 23.83C175.829 24.0353 176.041 24.2077 176.32 24.347C176.599 24.479 176.94 24.6147 177.343 24.754C177.805 24.9153 178.201 25.0877 178.531 25.271C178.868 25.447 179.125 25.667 179.301 25.931C179.484 26.195 179.576 26.5397 179.576 26.965ZM182.815 23.038C183.321 23.038 183.739 23.1553 184.069 23.39C184.406 23.6173 184.659 23.9327 184.828 24.336C185.004 24.7393 185.092 25.205 185.092 25.733V26.151H180.912C180.912 26.9357 181.091 27.5333 181.451 27.944C181.817 28.3547 182.334 28.56 183.002 28.56C183.368 28.56 183.687 28.5307 183.959 28.472C184.23 28.4133 184.527 28.3107 184.85 28.164V28.736C184.556 28.868 184.267 28.9633 183.981 29.022C183.695 29.0807 183.361 29.11 182.98 29.11C182.4 29.11 181.905 28.989 181.495 28.747C181.091 28.505 180.783 28.1603 180.571 27.713C180.365 27.2583 180.263 26.7303 180.263 26.129C180.263 25.5277 180.362 24.996 180.56 24.534C180.758 24.072 181.047 23.709 181.429 23.445C181.81 23.1737 182.272 23.038 182.815 23.038ZM182.815 23.566C182.272 23.566 181.836 23.7457 181.506 24.105C181.176 24.457 180.981 24.9667 180.923 25.634H184.443C184.443 25.2233 184.384 24.864 184.267 24.556C184.149 24.248 183.97 24.006 183.728 23.83C183.493 23.654 183.189 23.566 182.815 23.566ZM191.068 26.074C191.068 26.5287 191.009 26.943 190.892 27.317C190.782 27.6837 190.613 28.0027 190.386 28.274C190.166 28.538 189.891 28.7433 189.561 28.89C189.231 29.0367 188.853 29.11 188.428 29.11C188.025 29.11 187.662 29.0403 187.339 28.901C187.024 28.7543 186.752 28.549 186.525 28.285C186.298 28.0137 186.125 27.691 186.008 27.317C185.891 26.943 185.832 26.5287 185.832 26.074C185.832 25.436 185.935 24.8933 186.14 24.446C186.353 23.9913 186.657 23.643 187.053 23.401C187.456 23.159 187.933 23.038 188.483 23.038C189.04 23.038 189.51 23.1663 189.891 23.423C190.28 23.6723 190.573 24.0243 190.771 24.479C190.969 24.9337 191.068 25.4653 191.068 26.074ZM186.481 26.074C186.481 26.5727 186.551 27.0127 186.69 27.394C186.829 27.768 187.046 28.0577 187.339 28.263C187.632 28.4683 187.999 28.571 188.439 28.571C188.894 28.571 189.268 28.4683 189.561 28.263C189.854 28.0503 190.071 27.757 190.21 27.383C190.349 27.0017 190.419 26.5653 190.419 26.074C190.419 25.5827 190.353 25.15 190.221 24.776C190.089 24.402 189.88 24.1087 189.594 23.896C189.308 23.6833 188.934 23.577 188.472 23.577C187.805 23.577 187.306 23.797 186.976 24.237C186.646 24.677 186.481 25.2893 186.481 26.074ZM196.77 23.148V29H196.253L196.165 27.999H196.132C196.03 28.2117 195.883 28.4023 195.692 28.571C195.509 28.7397 195.289 28.8717 195.032 28.967C194.776 29.0623 194.479 29.11 194.141 29.11C193.687 29.11 193.305 29.033 192.997 28.879C192.697 28.7177 192.469 28.4793 192.315 28.164C192.161 27.8487 192.084 27.4563 192.084 26.987V23.148H192.711V26.932C192.711 27.4893 192.836 27.9037 193.085 28.175C193.342 28.439 193.716 28.571 194.207 28.571C194.64 28.571 194.999 28.4903 195.285 28.329C195.571 28.1603 195.784 27.911 195.923 27.581C196.07 27.251 196.143 26.8403 196.143 26.349V23.148H196.77ZM198.83 29H198.203V20.64H198.83V29ZM201.03 27.856C200.971 28.12 200.898 28.4023 200.81 28.703C200.722 29.0037 200.627 29.3007 200.524 29.594C200.421 29.8873 200.315 30.1623 200.205 30.419H199.721C199.816 30.0963 199.901 29.781 199.974 29.473C200.047 29.165 200.113 28.8643 200.172 28.571C200.231 28.2777 200.278 27.9953 200.315 27.724H200.975L201.03 27.856ZM206.678 21.146C207.309 21.146 207.833 21.2193 208.251 21.366C208.669 21.5053 208.981 21.7327 209.186 22.048C209.399 22.3633 209.505 22.7813 209.505 23.302C209.505 23.7053 209.432 24.05 209.285 24.336C209.138 24.6147 208.937 24.8457 208.68 25.029C208.431 25.205 208.148 25.3407 207.833 25.436L209.989 29H209.23L207.228 25.612H205.358V29H204.72V21.146H206.678ZM206.623 21.707H205.358V25.062H206.843C207.268 25.062 207.631 24.996 207.932 24.864C208.233 24.732 208.46 24.5377 208.614 24.281C208.768 24.017 208.845 23.698 208.845 23.324C208.845 22.9207 208.764 22.6017 208.603 22.367C208.442 22.1323 208.196 21.9637 207.866 21.861C207.536 21.7583 207.122 21.707 206.623 21.707ZM212.884 23.038C213.39 23.038 213.808 23.1553 214.138 23.39C214.475 23.6173 214.728 23.9327 214.897 24.336C215.073 24.7393 215.161 25.205 215.161 25.733V26.151H210.981C210.981 26.9357 211.161 27.5333 211.52 27.944C211.887 28.3547 212.404 28.56 213.071 28.56C213.438 28.56 213.757 28.5307 214.028 28.472C214.299 28.4133 214.596 28.3107 214.919 28.164V28.736C214.626 28.868 214.336 28.9633 214.05 29.022C213.764 29.0807 213.43 29.11 213.049 29.11C212.47 29.11 211.975 28.989 211.564 28.747C211.161 28.505 210.853 28.1603 210.64 27.713C210.435 27.2583 210.332 26.7303 210.332 26.129C210.332 25.5277 210.431 24.996 210.629 24.534C210.827 24.072 211.117 23.709 211.498 23.445C211.879 23.1737 212.341 23.038 212.884 23.038ZM212.884 23.566C212.341 23.566 211.905 23.7457 211.575 24.105C211.245 24.457 211.051 24.9667 210.992 25.634H214.512C214.512 25.2233 214.453 24.864 214.336 24.556C214.219 24.248 214.039 24.006 213.797 23.83C213.562 23.654 213.258 23.566 212.884 23.566ZM218.86 23.038C219.608 23.038 220.191 23.291 220.609 23.797C221.035 24.303 221.247 25.051 221.247 26.041C221.247 26.701 221.148 27.262 220.95 27.724C220.752 28.1787 220.47 28.5233 220.103 28.758C219.744 28.9927 219.311 29.11 218.805 29.11C218.461 29.11 218.16 29.0587 217.903 28.956C217.647 28.8533 217.434 28.7177 217.265 28.549C217.097 28.3803 216.965 28.1933 216.869 27.988H216.825C216.84 28.1713 216.851 28.373 216.858 28.593C216.866 28.8057 216.869 29.0037 216.869 29.187V31.596H216.242V23.148H216.759L216.836 24.248H216.869C216.965 24.0353 217.1 23.8373 217.276 23.654C217.452 23.4707 217.669 23.324 217.925 23.214C218.189 23.0967 218.501 23.038 218.86 23.038ZM218.772 23.577C218.34 23.577 217.984 23.6687 217.705 23.852C217.427 24.0353 217.218 24.3067 217.078 24.666C216.939 25.018 216.869 25.4543 216.869 25.975V26.085C216.869 26.635 216.935 27.097 217.067 27.471C217.207 27.8377 217.412 28.1127 217.683 28.296C217.962 28.4793 218.31 28.571 218.728 28.571C219.139 28.571 219.48 28.472 219.751 28.274C220.03 28.0687 220.239 27.779 220.378 27.405C220.525 27.0237 220.598 26.569 220.598 26.041C220.598 25.2417 220.448 24.633 220.147 24.215C219.847 23.7897 219.388 23.577 218.772 23.577ZM226.936 23.148V29H226.419L226.331 27.999H226.298C226.196 28.2117 226.049 28.4023 225.858 28.571C225.675 28.7397 225.455 28.8717 225.198 28.967C224.942 29.0623 224.645 29.11 224.307 29.11C223.853 29.11 223.471 29.033 223.163 28.879C222.863 28.7177 222.635 28.4793 222.481 28.164C222.327 27.8487 222.25 27.4563 222.25 26.987V23.148H222.877V26.932C222.877 27.4893 223.002 27.9037 223.251 28.175C223.508 28.439 223.882 28.571 224.373 28.571C224.806 28.571 225.165 28.4903 225.451 28.329C225.737 28.1603 225.95 27.911 226.089 27.581C226.236 27.251 226.309 26.8403 226.309 26.349V23.148H226.936ZM228.985 22.95C228.985 23.1627 228.982 23.39 228.974 23.632C228.967 23.8667 228.956 24.061 228.941 24.215H228.985C229.132 23.8777 229.37 23.599 229.7 23.379C230.038 23.1517 230.463 23.038 230.976 23.038C231.724 23.038 232.307 23.2947 232.725 23.808C233.151 24.314 233.363 25.0657 233.363 26.063C233.363 26.679 233.268 27.2143 233.077 27.669C232.894 28.1237 232.615 28.4793 232.241 28.736C231.875 28.9853 231.424 29.11 230.888 29.11C230.397 29.11 229.994 29.0073 229.678 28.802C229.37 28.5967 229.143 28.3473 228.996 28.054H228.941L228.82 29H228.358V20.64H228.985V22.95ZM230.888 23.577C230.441 23.577 230.074 23.6723 229.788 23.863C229.51 24.0537 229.304 24.3323 229.172 24.699C229.048 25.0657 228.985 25.5203 228.985 26.063V26.14C228.985 26.932 229.125 27.537 229.403 27.955C229.689 28.3657 230.159 28.571 230.811 28.571C231.442 28.571 231.915 28.3547 232.23 27.922C232.553 27.4893 232.714 26.8697 232.714 26.063C232.714 25.2343 232.564 24.6147 232.263 24.204C231.963 23.786 231.504 23.577 230.888 23.577ZM235.081 29H234.454V20.64H235.081V29ZM237.127 23.148V29H236.511V23.148H237.127ZM236.819 20.981C236.958 20.981 237.065 21.025 237.138 21.113C237.211 21.1937 237.248 21.3073 237.248 21.454C237.248 21.608 237.211 21.729 237.138 21.817C237.065 21.8977 236.958 21.938 236.819 21.938C236.687 21.938 236.584 21.8977 236.511 21.817C236.438 21.729 236.401 21.608 236.401 21.454C236.401 21.3073 236.438 21.1937 236.511 21.113C236.584 21.025 236.687 20.981 236.819 20.981ZM240.911 29.11C240.339 29.11 239.851 28.9927 239.448 28.758C239.052 28.516 238.747 28.1713 238.535 27.724C238.329 27.2767 238.227 26.7377 238.227 26.107C238.227 25.447 238.344 24.8897 238.579 24.435C238.821 23.9803 239.151 23.6357 239.569 23.401C239.987 23.159 240.478 23.038 241.043 23.038C241.321 23.038 241.582 23.0673 241.824 23.126C242.073 23.1773 242.293 23.247 242.484 23.335L242.319 23.863C242.121 23.7823 241.908 23.72 241.681 23.676C241.453 23.6247 241.237 23.599 241.032 23.599C240.562 23.599 240.166 23.7017 239.844 23.907C239.528 24.105 239.286 24.391 239.118 24.765C238.956 25.139 238.876 25.5863 238.876 26.107C238.876 26.591 238.945 27.02 239.085 27.394C239.231 27.7607 239.455 28.0467 239.756 28.252C240.056 28.4573 240.441 28.56 240.911 28.56C241.197 28.56 241.464 28.5307 241.714 28.472C241.97 28.4133 242.205 28.3363 242.418 28.241V28.813C242.227 28.8937 242.007 28.9633 241.758 29.022C241.508 29.0807 241.226 29.11 240.911 29.11ZM250.551 26.074C250.551 26.5287 250.493 26.943 250.375 27.317C250.265 27.6837 250.097 28.0027 249.869 28.274C249.649 28.538 249.374 28.7433 249.044 28.89C248.714 29.0367 248.337 29.11 247.911 29.11C247.508 29.11 247.145 29.0403 246.822 28.901C246.507 28.7543 246.236 28.549 246.008 28.285C245.781 28.0137 245.609 27.691 245.491 27.317C245.374 26.943 245.315 26.5287 245.315 26.074C245.315 25.436 245.418 24.8933 245.623 24.446C245.836 23.9913 246.14 23.643 246.536 23.401C246.94 23.159 247.416 23.038 247.966 23.038C248.524 23.038 248.993 23.1663 249.374 23.423C249.763 23.6723 250.056 24.0243 250.254 24.479C250.452 24.9337 250.551 25.4653 250.551 26.074ZM245.964 26.074C245.964 26.5727 246.034 27.0127 246.173 27.394C246.313 27.768 246.529 28.0577 246.822 28.263C247.116 28.4683 247.482 28.571 247.922 28.571C248.377 28.571 248.751 28.4683 249.044 28.263C249.338 28.0503 249.554 27.757 249.693 27.383C249.833 27.0017 249.902 26.5653 249.902 26.074C249.902 25.5827 249.836 25.15 249.704 24.776C249.572 24.402 249.363 24.1087 249.077 23.896C248.791 23.6833 248.417 23.577 247.955 23.577C247.288 23.577 246.789 23.797 246.459 24.237C246.129 24.677 245.964 25.2893 245.964 26.074ZM253.922 23.654H252.525V29H251.898V23.654H250.82V23.313L251.898 23.137V22.543C251.898 22.103 251.96 21.74 252.085 21.454C252.217 21.1607 252.411 20.9443 252.668 20.805C252.932 20.6583 253.258 20.585 253.647 20.585C253.852 20.585 254.039 20.6033 254.208 20.64C254.376 20.6693 254.53 20.706 254.67 20.75L254.516 21.267C254.391 21.223 254.252 21.1863 254.098 21.157C253.951 21.1277 253.801 21.113 253.647 21.113C253.251 21.113 252.965 21.2267 252.789 21.454C252.613 21.674 252.525 22.037 252.525 22.543V23.148H253.922V23.654ZM262.397 29H261.638L258.646 24.93L257.667 25.865V29H257.029V21.146H257.667V25.227C257.813 25.0583 257.967 24.8897 258.129 24.721C258.29 24.545 258.451 24.369 258.613 24.193L261.528 21.146H262.309L259.108 24.49L262.397 29ZM267.759 26.074C267.759 26.5287 267.7 26.943 267.583 27.317C267.473 27.6837 267.304 28.0027 267.077 28.274C266.857 28.538 266.582 28.7433 266.252 28.89C265.922 29.0367 265.544 29.11 265.119 29.11C264.715 29.11 264.352 29.0403 264.03 28.901C263.714 28.7543 263.443 28.549 263.216 28.285C262.988 28.0137 262.816 27.691 262.699 27.317C262.581 26.943 262.523 26.5287 262.523 26.074C262.523 25.436 262.625 24.8933 262.831 24.446C263.043 23.9913 263.348 23.643 263.744 23.401C264.147 23.159 264.624 23.038 265.174 23.038C265.731 23.038 266.2 23.1663 266.582 23.423C266.97 23.6723 267.264 24.0243 267.462 24.479C267.66 24.9337 267.759 25.4653 267.759 26.074ZM263.172 26.074C263.172 26.5727 263.241 27.0127 263.381 27.394C263.52 27.768 263.736 28.0577 264.03 28.263C264.323 28.4683 264.69 28.571 265.13 28.571C265.584 28.571 265.958 28.4683 266.252 28.263C266.545 28.0503 266.761 27.757 266.901 27.383C267.04 27.0017 267.11 26.5653 267.11 26.074C267.11 25.5827 267.044 25.15 266.912 24.776C266.78 24.402 266.571 24.1087 266.285 23.896C265.999 23.6833 265.625 23.577 265.163 23.577C264.495 23.577 263.997 23.797 263.667 24.237C263.337 24.677 263.172 25.2893 263.172 26.074ZM271.25 23.049C271.396 23.049 271.536 23.06 271.668 23.082C271.807 23.0967 271.932 23.1187 272.042 23.148L271.954 23.72C271.836 23.6907 271.719 23.6687 271.602 23.654C271.484 23.632 271.356 23.621 271.217 23.621C270.953 23.621 270.714 23.6723 270.502 23.775C270.289 23.8777 270.106 24.0243 269.952 24.215C269.798 24.4057 269.68 24.633 269.6 24.897C269.519 25.161 269.479 25.458 269.479 25.788V29H268.852V23.148H269.38L269.446 24.248H269.479C269.574 24.0207 269.702 23.819 269.864 23.643C270.032 23.4597 270.234 23.3167 270.469 23.214C270.703 23.104 270.964 23.049 271.25 23.049ZM274.677 23.038C275.183 23.038 275.601 23.1553 275.931 23.39C276.268 23.6173 276.521 23.9327 276.69 24.336C276.866 24.7393 276.954 25.205 276.954 25.733V26.151H272.774C272.774 26.9357 272.954 27.5333 273.313 27.944C273.68 28.3547 274.197 28.56 274.864 28.56C275.231 28.56 275.55 28.5307 275.821 28.472C276.092 28.4133 276.389 28.3107 276.712 28.164V28.736C276.419 28.868 276.129 28.9633 275.843 29.022C275.557 29.0807 275.223 29.11 274.842 29.11C274.263 29.11 273.768 28.989 273.357 28.747C272.954 28.505 272.646 28.1603 272.433 27.713C272.228 27.2583 272.125 26.7303 272.125 26.129C272.125 25.5277 272.224 24.996 272.422 24.534C272.62 24.072 272.91 23.709 273.291 23.445C273.672 23.1737 274.134 23.038 274.677 23.038ZM274.677 23.566C274.134 23.566 273.698 23.7457 273.368 24.105C273.038 24.457 272.844 24.9667 272.785 25.634H276.305C276.305 25.2233 276.246 24.864 276.129 24.556C276.012 24.248 275.832 24.006 275.59 23.83C275.355 23.654 275.051 23.566 274.677 23.566ZM280.103 23.049C280.763 23.049 281.255 23.2103 281.577 23.533C281.9 23.8557 282.061 24.369 282.061 25.073V29H281.588L281.478 28.01H281.445C281.306 28.23 281.145 28.4243 280.961 28.593C280.785 28.7543 280.569 28.8827 280.312 28.978C280.063 29.066 279.755 29.11 279.388 29.11C279.022 29.11 278.703 29.0477 278.431 28.923C278.16 28.791 277.951 28.604 277.804 28.362C277.658 28.12 277.584 27.823 277.584 27.471C277.584 26.8917 277.823 26.4517 278.299 26.151C278.776 25.843 279.469 25.667 280.378 25.623L281.445 25.579V25.161C281.445 24.5817 281.328 24.1747 281.093 23.94C280.866 23.698 280.525 23.577 280.07 23.577C279.77 23.577 279.48 23.6173 279.201 23.698C278.93 23.7713 278.655 23.8777 278.376 24.017L278.178 23.522C278.45 23.3827 278.75 23.269 279.08 23.181C279.41 23.093 279.751 23.049 280.103 23.049ZM280.444 26.085C279.704 26.1217 279.15 26.2537 278.783 26.481C278.417 26.701 278.233 27.0347 278.233 27.482C278.233 27.8413 278.347 28.1163 278.574 28.307C278.802 28.4903 279.11 28.582 279.498 28.582C280.122 28.582 280.598 28.4097 280.928 28.065C281.266 27.7203 281.438 27.2363 281.445 26.613V26.041L280.444 26.085Z" fill="black"/>
<path d="M34 17L19 24.5L24.625 26.375L26.5 32L34 17Z" fill="black"/>
<path d="M313 25.395H318.395M318.395 25.395H323.79M318.395 25.395V20M318.395 25.395V30.79" stroke="black" stroke-linecap="round" stroke-linejoin="round"/>
</svg>
